<?xml version="1.0" encoding="utf-8"?>
<!-- Generator: Adobe Illustrator 17.0.0, SVG Export Plug-In . SVG Version: 6.00 Build 0)  -->
<!DOCTYPE svg PUBLIC "-//W3C//DTD SVG 1.1//EN" "http://www.w3.org/Graphics/SVG/1.1/DTD/svg11.dtd">
<svg version="1.1" id="Calque_1" xmlns="http://www.w3.org/2000/svg" xmlns:xlink="http://www.w3.org/1999/xlink" x="0px" y="0px"
	 width="500px" height="197.6px" viewBox="0 0 500 197.6" enable-background="new 0 0 500 197.6" xml:space="preserve">
<path id="_x2E_svg_174_" fill="#FFFFFF" d="M35.1,44.7c-0.1,0.7-0.1,1.5-0.3,2.2c-0.4,1.6-0.8,3.3-1.4,4.9c-0.9,2.4-1,5-1.2,7.5
	c-0.1,1.5-0.3,2.9-0.3,4.4c0.5-1.8,1-3.7,1.5-5.5c0.1,0,0.2,0,0.3,0c-0.1,3.2-0.8,6.3-1.4,9.5c0,0.2,0,0.4,0,0.5c0,0,0,0,0,0
	c0-0.2,0-0.4,0-0.5c0.2-0.6,0.4-1.1,0.6-1.7c0.8-3,1.6-6.1,2.5-9.1c0.1-0.4,0.3-0.7,0.6-1.1c0.1,0.7,0.3,1.5,0.4,2.2
	c-0.9,1.1-0.5,2.4-0.8,3.6c0.1,0,0.2,0,0.3,0.1c0.4-1.3,0.7-2.5,1.1-3.9c-0.3,0.2-0.5,0.3-0.7,0.3c0.1-0.7,0.1-1.4,0.3-2
	c0.3-0.9,0.6-1.7,1-2.5c0.6-1,0.8-2.1,0.9-3.2c0.2-1.5,0.6-2.9,2.2-3.6c0.2-0.1,0.4-0.4,0.5-0.6c0.3-0.4,0.5-0.8,1-1
	c0,0.5,0.1,1,0.1,1.5c0.1,0,0.2,0.1,0.2,0.1c0.2-0.4,0.4-0.8,0.7-1.2c0.1-0.2,0.3-0.5,0.5-0.7c0.1-0.1,0.3,0,0.4,0
	c0.1,0,0.1,0.2,0.1,0.3c-0.1,0.2-0.2,0.4-0.3,0.5c-0.9,0.7-1.1,1.8-1.5,2.8c-0.1,0.3-0.2,0.8,0,0.9c0.5,0.5,0.4,1,0.5,1.6
	c0.2-0.2,0.4-0.5,0.5-0.7c0.4-0.8,0.8-1.6,1.2-2.4c0.7-1.5,1.1-1.6,2.4-0.6c1,0.7,2.1,1.3,3.1,2c0.3,0.2,0.8,0.3,1.1,0.4
	c1.2-1.7,0-2.7-1.1-3.7c0.9,0,1.6-0.1,2.3,0.4c0.1,0.1,0.2,0.1,0.3,0.1c0.5,0,1.1-0.2,1.2,0.4c0.1,0.7,0.2,1.5-0.1,2
	c-0.6,0.8-0.9,1.7-0.8,2.6c0,0.1,0,0.2,0,0.2c-0.6,2.5-1.1,5.1-1.7,7.6c-0.7,3-1.5,6-2.3,9c-0.6,2.1-1.3,4.3-1.8,6.4
	c-2,9-3.8,18.1-5.2,27.3c-0.2,1.3-1.1,2.3-1.5,3.5c-0.1,0.3-0.3,0.6-0.6,1.1c1.7-0.4,3.1-0.8,4.5-1c4.2-0.8,8.4-1.5,12.6-2.4
	c6.3-1.2,12.5-2.5,18.8-3.7c4.6-0.9,9.3-1.9,13.9-2.8c0.7-0.1,1.5,0,2.3,0.1c1,0.1,1.1,0.1,1.4-0.9c0.4-1.5,0.8-3.1,1.2-4.7
	c0.2-0.9,0.5-1.7,0.8-2.6c0.3,1.3,0,2.7,1.2,4c0.3-0.4,0.5-0.7,0.6-1c0.9-2.7,1.4-5.5,1.4-8.3c0-1.5,0.5-3,0.6-4.5
	c0.2-3,1.2-5.8,1.8-8.7c0.4-1.8,1-3.6,1.5-5.3c0.1-0.4,0.2-0.8,0.1-1.3c-0.2,0.1-0.5,0.2-0.6,0.4c-0.2,0.5-0.3,1.1-0.5,1.6
	c-0.2,0.5-0.4,1-0.6,1.5c-0.7-0.3-0.5-0.7-0.4-1.1c0.3-1.2,0.7-2.5,1-3.7c0.2-0.9,0.5-1.7,0.7-2.6c0.2-0.6,0.4-1.1,1.1-1
	c0.9-4.7,2.6-9.1,4.7-13.4c0.5-1.1,1-2.2,1.5-3.2c0.1-0.3,0.3-0.6,0.5-0.7c1-0.3,1.1-1.1,1.4-1.9c0.3-0.9,0.6-1.7,1.4-2.4
	c0,1.1-0.2,1.9-0.6,2.7c-0.1,0.3-0.3,0.5-0.4,0.8c-0.3,2.1-1.1,3.9-2,5.8c-0.5,1.1-1.1,2.2-1.7,3.3c-0.2,0.4-0.4,0.8-0.5,1.2
	c-0.4,1.7-0.8,3.4-1.2,5.2c-0.6,2.6-1.2,5.2-1.9,7.8c-0.9,3.3-1.8,6.6-2.7,9.9c-0.4,1.4-0.7,2.7-0.5,4.1c0.1,0.6-0.1,1.2-0.2,1.8
	c-0.2,1.2-0.4,2.4-0.6,3.6c-0.1,0.4-0.1,0.8,0.5,1c0.1-0.4,0.2-0.7,0.3-1c1.4-6.6,3.5-12.9,5.1-19.4c1-3.9,2.2-7.7,2.9-11.7
	c0.3-2,1-3.9,1.7-5.8c1-2.9,2-5.7,3-8.6c0-0.1,0-0.2,0.1-0.2c0.1-0.4,0.4-0.8,0.8-0.7c0.6,0,0.6,0.5,0.6,0.9c0,1.3,0,2.6,0,4
	c0,0.5,0,0.9,0.1,1.6c1.1-0.6,1.1-1.6,1.4-2.4c0.3-0.8,0.4-1.7,0.6-2.5c0.2,0,0.4,0,0.6,0c1.6,0.3,1.9,0.6,1.9,2.2
	c0.1,1.5,0.1,3,0.2,4.4c0,0.5,0.1,1,0.3,1.5c0.8-0.7,0.6-1.7,0.8-2.6c0.2-0.9,0.4-1.7,0.6-2.6c0.6,1.7,0.3,3.3-0.2,4.8
	c-0.2,0.6-0.4,1.1-0.1,1.8c0.2,0.3,0.2,0.8,0.1,1.2c-0.3,2.6-0.6,5.1-0.9,7.7c-0.1,1.1-0.4,2.3-0.6,3.4c0.1,0,0.2,0,0.3,0.1
	c0.4-1.3,0.8-2.6,1.1-3.8c0,0,0.1,0,0.1,0c-0.1,0.7-0.1,1.4-0.2,2.1c-1,4.7-1.9,9.4-2.4,14.2c-0.2,2-0.4,4-0.6,6
	c-0.1,1.1-0.3,2.2-0.5,3.3c0-0.3,0-0.5,0.1-0.8c0,0,0,0-0.1,0c0,0.3,0,0.5,0,0.8c0,0.5,0,1,0,1.4c-0.1-0.1-0.2-0.3-0.3-0.5
	c-0.9,5.2-1.1,10.4-1.1,15.5c-0.1,0-0.2,0-0.3,0c0-1.2,0-2.4,0-3.5c-0.1,0-0.1,0-0.2,0c-0.1,0.3-0.1,0.5-0.2,0.8
	c-0.1,0.8-0.2,1.6-0.3,2.4c0,1.6,0.5,3,1.7,4.1c0.8,0.7,1.7,1.2,2.7,1.7c0.7,0.4,0.8,0.9,0.3,1.4c-0.2,0.2-0.4,0.3-0.6,0.4
	c-1.1,0.3-2.3,0.6-3.5,0.9c-0.2,0.1-0.5,0.1-0.7,0.1c-1.4,0.1-2.2,0.9-2.6,2.2c-0.6,1.9-1.1,3.9-1.7,5.8c-0.2,0.8-0.5,1.6-1,2.4
	c0.1-1.9,0.2-3.7,0.3-5.6c-0.1,0-0.2,0-0.3,0c-0.7,2.1-1,4.4-1.7,6.6c-0.3-0.1-0.5-0.1-0.8-0.2c-0.2,1.8-0.4,3.5-0.7,5.2
	c-0.3,2-0.7,4.1-1,6.1c-0.4,2.8-1,5.5-1.7,8.2c-0.1,0.2,0,0.4,0,0.6c0.4,2.2-0.1,4.2-0.6,6.3c-0.3,1.4-0.6,2.9-0.8,4.4
	c-0.1,0.4,0.2,0.8,0.3,1.3c0.1,0.2,0.3,0.5,0.3,0.6c-0.4,1.6-0.1,3.3-1.2,5.1c-0.2-0.4-0.4-0.7-0.6-1.1c-0.4,1.1-0.9,2.1-0.8,3.4
	c0.3-0.4,0.6-0.8,0.8-1.1c0.3,1,0.2,1.6-0.8,3.1c-0.1-0.5-0.3-0.9-0.5-1.6c-0.2,1.9-0.4,3.6-0.4,5.2c-0.1,4.1-1.1,8.1-2,12
	c-0.5,2.3-1,4.6-1.6,7c0.2-5.4,0.7-10.8,1.4-16.3c-0.8,0.8-1.1,1.6-1.5,2.5c-0.2,0.6-0.4,1.3-0.7,1.8c-0.2,0.4-0.7,0.7-1,1.1l0,0
	c-0.1-1.1,0.4-2,0.9-2.9c1.6-2.6,2.7-5.3,3.2-8.4c0.5-3.2,1.1-6.3,1.6-9.5c-0.2,0.6-0.4,1.2-0.7,1.8c-0.4,0.8-0.8,1.6-1.1,2.4
	c-0.3,0.6-0.4,1.2-0.6,1.9c-0.5,1.9-1,3.9-1.5,5.8c-0.4,1.5-0.9,3.1-1.4,4.6c-0.8,2.8-1.6,5.6-2.4,8.4c-0.1,0.3-0.2,0.6-0.2,0.8
	c0,1.8-0.5,3.6-1.1,5.3c-0.6,1.8-1.1,3.5-1.3,5.4c-0.3,2.1-1.1,4.1-1.9,6.1c-0.4,0.9-0.7,1-1.8,1.1c0.1-0.4,0.2-0.8,0.3-1.2
	c1-2.7,2-5.4,2.9-8.1c0.1-0.4,0.2-0.6-0.3-0.9c-0.1,0.1-0.3,0.2-0.4,0.4c-1.1,2.8-2.1,5.6-3.1,8.4c-0.1,0.3-0.2,0.7-0.3,1.1
	c-0.1,0.4-0.4,0.8-0.9,0.7c-0.3-0.1-0.5-0.4-0.7-0.7c-0.1-0.2-0.1-0.4-0.2-0.7c-0.6,0.2-0.9,0.9-1.6,0.5c-0.7-0.5-1.3-1.1-1.3-2.1
	c0.1-1.8,0.2-3.5,0.3-5.3c0-0.4,0-0.8-0.1-1.2c-0.7,0.4-0.7,1.2-0.9,1.9c-0.1,0.7-0.2,1.4-0.5,2.1c-0.1-0.3-0.3-0.7-0.2-1
	c0.1-1.5,0.2-3,0.3-4.5c0.1-1.4,0.4-2.8,0.6-4.3c0.1-0.7,0-1.5,0-2.2c0-0.6,0.1-1.1,0.2-1.8c-1.1-0.9-1-2.1-0.8-3.4
	c0.8-4,1.5-7.9,2.2-11.9c1.1-6.1,2-12.2,3.1-18.4c0.3-1.9,0.8-3.9,1.1-5.8c0.1-0.3,0.1-0.6,0.1-1c-0.6,0.2-0.5,0.8-0.7,1.1
	c-1.2,3.6-1.8,7.3-2.5,11.1c-1.2,6.3-2.5,12.7-3.7,19c-0.1,0.3-0.2,0.5-0.4,0.7l0,0c1.4-11.5,3.2-23,5.9-34.3
	c0.9-3.7,1.9-7.4,2.8-11.1c0.1-0.2,0.2-0.4,0.3-0.6l0,0c0,0.5,0,0.9,0,1.4c-0.1,0.2-0.1,0.4-0.2,0.6c0.1,0,0.1,0,0.2,0
	c0-0.2,0-0.4,0-0.6c0.3-0.7,0.5-1.4,0.8-2.1c0-0.1,0-0.2,0-0.2c-1-1.1,0-2.1,0-3.2c0-0.6,0.2-1.1,0.1-1.7c0-0.8-0.4-1-1.1-1
	c-1.4,0.1-2.9,0.2-4.3,0.4c-0.4,0.1-0.7,0.5-1.1,0.8c0.4,0.1,0.5,0.2,0.8,0.3c-1.5,0.3-2.9,0.8-4.3,0.9c-2.4,0.2-4.7,1.2-7.1,1.5
	c-0.8,0.1-1.6,0.1-2.4,0c2.2-0.6,4.4-1.2,6.7-1.8c0-0.1,0-0.1,0-0.2c-0.3,0-0.6-0.1-0.8,0c-4.3,0.8-8.6,1.6-12.8,2.4
	c-1.9,0.4-3.9,0.6-5.8,1.1c-1.4,0.3-2.7,0.9-4,1.6c1.2-0.2,2.3-0.4,3.5-0.5c0,0,0,0,0,0c-0.4,0.2-0.9,0.4-1.3,0.5
	c-1.2,0.3-2.4,0.5-3.6,0.8c-0.7,0.1-1.3,0.3-2,0.1c-0.7-0.1-1.5,0.1-2.2,0.3c-1.9,0.3-3.8,0.6-5.7,0.9c-0.8,0.1-1.5,0.5-2.3,0.7
	c-0.1,0-0.2,0.1-0.3,0.1c0.1,0,0.2-0.1,0.3-0.1c1.3-0.1,2.6-0.2,3.9-0.4c2.3-0.3,4.6-0.7,6.9-0.8c2.3-0.1,4.7-0.5,7-0.6
	c2.3-0.2,4.7-0.3,7-0.5c0.6,0,1.2,0,1.8,0.1c-10.5,1.4-21,2.7-31.5,4.1c0,0.1,0,0.2,0,0.3c0.4,0.2,0.7,0.4,1.2,0.6c-0.5,2-1,4-1.5,6
	c-0.1,0.3,0,0.7,0.1,1c0.1,0.4,0.4,0.7,0.6,1.1c0.2,0.4,0.2,0.8-0.2,1.1c-0.5,0.4-0.5,0.9-0.5,1.4c-0.1,1.9-0.2,3.7-0.4,5.6
	c-0.1,1.5-0.4,3-1.2,4.4c-0.6,1.1-1,2.3-1,3.7c0,1.4-0.5,2.6-1,3.9c-0.6,1.5-0.9,3.1-1.3,4.7c-1.2,5.1-2.3,10.2-3.4,15.3
	c-0.1,0.4-0.2,0.8-0.3,1.1c-0.1,0-0.2,0-0.3-0.1c0.5-3.3,0.8-6.7,1.4-10c1-5.8,2.1-11.7,3.2-17.5c0.1-0.3,0.1-0.7,0.1-1.2
	c-0.7,0.2-0.7,0.7-0.8,1.1c-1.4,3.6-2.5,7.3-3.4,11.1c-1.1,4.6-2.2,9.1-3.3,13.7c-0.9,3.9-1.8,7.7-2.6,11.6c0,0.1-0.1,0.2-0.2,0.3
	c-0.1,0-0.3,0-0.4-0.1c-0.8-0.4-0.9-0.4-1.2,0.5c-0.2,0.6-0.4,1.1-1.2,1c0,0.5,0.5,1-0.2,1.2c-0.1,0-0.1,0.4-0.1,0.6
	c-0.3,1.2-0.6,2.4-1.6,3.3c-0.2,0.2-0.3,0.6-0.5,0.9c-0.7,1.3-1.5,2.5-2.2,3.8c-0.1,0-0.2-0.1-0.3-0.1c0-0.2-0.1-0.5-0.1-0.7
	c0.1-1.2,0.3-2.4,0.5-3.5c0.3-1.5,0.6-3.1,0.9-4.6c0.1-0.4,0.1-0.8-0.5-0.7c-0.9,3.5-1.5,7.1-2.5,10.7c-1.5-1-2.4-2.9-2.1-4.4
	c1.4-6.7,2.6-13.4,3.6-20.1c0.3-1.9,0.3-3.9,0.5-5.8c0-0.1,0-0.3-0.3-0.5c-0.1,0.3-0.2,0.5-0.2,0.8c-0.3,3-0.6,6-1,9
	c-0.8,6.3-2,12.5-3.5,18.7c-0.1,0.2-0.2,0.5-0.5,0.7c0-0.4-0.1-0.8,0-1.2c0.3-2.5,0.5-4.9,0.9-7.4c0.5-3.7,1.1-7.5,1.4-11.3
	c0.4-5.4,1.1-10.8,2.1-16.1c0.5-2.8,0.7-5.7,1-8.6c0.4-3.7,0.8-7.4,1.1-11c0.1-1.1,0-2.3,0.1-3.4c0.1-1.9,0.4-3.7,0.9-5.5
	c0.1-0.3,0.1-0.7,0.1-1.1c-1.1,0.1-2,0-2.9,0.2c-0.4,0.1-0.8,0.4-1.1,0.6c-0.4-0.1-0.8-0.5-1.2-0.4c-1,0.2-1.9,0-2.8-0.3
	c-0.3-0.1-0.7-0.1-1.1-0.2c0-0.2,0.1-0.5,0.1-0.7c-1.7-0.5-2.9-1.6-4.2-2.6c-0.4-0.3-0.9-0.6-1.3-0.8c0-0.2,0-0.5,0-0.7
	c0.9-0.4,1.9-0.8,2.8-1.2c1.4-0.5,2.7-0.9,4.1-1.3c0.2,0,0.4,0.2,0.9,0.5c0.6-0.2,1.5-0.5,2.6-0.9c-0.5-0.1-0.8-0.1-1.2-0.2
	c0.4-0.3,0.6-0.5,0.9-0.7c1.3-0.5,2.7-1.1,4-1.6c0.9-0.3,1.9-0.6,2.9-0.9c0.7-0.2,1.8-2.2,1.8-3c0-0.6,0.1-1.1,0.2-1.7
	c0.1-0.4,0.2-0.9,0.4-1.3c1.3-3.1,1.5-6.5,2.2-9.7c0.5-2.1,0.8-4.2,1.3-6.3c0.8-3.4,1.7-6.7,2.4-10.1c1.6-7.7,3.1-15.4,4.7-23.1
	c0.2-1,0.4-2,0.6-3c0-0.1,0-0.3,0-0.4c0,0,0,0,0,0c0,0.1,0,0.3,0,0.4c-0.2,0.3-0.5,0.6-0.6,1c-1,3-2,6-3,9c-0.2,0.6-0.5,1.2-0.7,1.8
	c-0.2,1-0.4,2.1-0.5,3.1c-0.4,3.7-0.8,7.4-1.3,11.2c0,0.1-0.1,0.2-0.3,0.3c0.1-1.3,0.2-2.6,0.3-3.9c0,0-0.1,0-0.1,0
	c-0.4,2.1-0.9,4.1-1.3,6.2c-1.6,7.7-3.4,15.3-5.7,22.7c-0.2,0.6-0.5,1.2-0.8,1.7c-0.3-0.9-0.2-1.8-0.1-2.6
	c1.5-10.6,4.4-20.8,7.4-30.9c0.6-2,1.2-4.1,1.8-6.2c0.2-0.9,0.1-2,0.5-2.8c0.4-0.8,0.5-1.7,0.7-2.5c0.2-1,0.3-1.9,0.5-2.9
	c0.2-1,0.3-2,0.5-2.9c0.1-0.7,0.2-1.5,0.1-2.3c-0.2,0.5-0.4,1-0.6,1.6c-0.1-0.1-0.2-0.1-0.2-0.1c0.5-3.2,1.1-6.3,1.7-9.5
	c0-0.3,0.2-0.5,0.3-0.8l0,0c-0.2,1.5-0.4,2.9-0.7,4.4c-0.2,1-0.2,1,0.3,2.2c0.2-0.4,0.4-0.8,0.5-1.2c1.7-4,3.4-7.9,5.1-11.9
	C34.6,45.4,34.9,45.1,35.1,44.7L35.1,44.7z M41.5,47.9c0.1-0.1,0.3-0.2,0.4-0.4c-0.1,0-0.2-0.1-0.3-0.1
	C41.6,47.5,41.5,47.7,41.5,47.9c-0.1,0.2-0.2,0.4-0.3,0.6c0.1,0,0.2,0.1,0.3,0.1C41.4,48.3,41.4,48.1,41.5,47.9z M50.6,120.8
	c-0.9,0.2-1.7,0.4-2.6,0.5c0,0.1,0.1,0.2,0.1,0.3C48.9,121.3,49.8,121,50.6,120.8c0.6-0.1,1.2-0.2,1.9-0.2c0-0.1,0-0.2,0-0.2
	C51.8,120.4,51.2,120.6,50.6,120.8z M47.9,107.7c-1.3,0.1-2.5,0.7-3.7,1.1C45.6,108.8,46.8,108.3,47.9,107.7
	C48,107.7,48.1,107.7,47.9,107.7C48.1,107.6,48,107.7,47.9,107.7z M45.9,107.2c-1.9,0.2-5.7,1.2-6.4,1.7c0.8,0.2,1.4,0.2,2.1-0.1
	c1.1-0.4,2.3-0.8,3.4-1.2C45.3,107.5,45.6,107.3,45.9,107.2c0.1,0,0.3,0,0.4,0c0-0.1,0-0.1,0-0.2C46.2,107.1,46,107.1,45.9,107.2z
	 M117,84.4c-0.4,1.5-0.8,3-1.2,4.4c-0.3,1.3-0.5,2.7-0.7,4c-0.2,1.1-0.2,2.1-0.4,3.3c0.6,0,0.7-0.5,0.7-0.8c0.1-0.9,0.2-1.8,0.4-2.7
	C116.2,89.8,116.6,87.1,117,84.4c0-0.2,0-0.4,0-0.6c0,0,0,0,0,0C116.9,84,116.9,84.2,117,84.4z M54.2,105.3c1.5-0.2,2.9-0.5,4.4-0.7
	c1.2-0.2,2.5-0.7,3.6-0.5c1.5,0.2,2.7-0.2,4.1-0.6c0,0,0.1-0.1,0.1-0.2c-0.4,0-0.7,0.1-1,0.1c0-0.1,0-0.1,0-0.2
	c1.2-0.4,2.4-0.7,3.6-1.1c-0.1-0.1-0.3-0.2-0.4-0.1c-4.5,0.8-9,1.6-13.4,2.8C54.8,104.9,54.5,105.2,54.2,105.3
	c-0.5,0.1-1.1,0.1-1.7,0.2c0,0.1,0,0.2,0,0.2C53.1,105.6,53.6,105.4,54.2,105.3z M46,75c-0.2,0.4-0.4,0.7-0.6,1.1
	c-0.2,0.3-0.3,0.6-0.4,0.9c-0.1-0.9,0-1.8,0.2-2.6c0.3-1.2,0.7-2.4,1.1-3.7c0.1-0.5,0.3-0.9,0.4-1.4c0-0.2-0.1-0.4-0.2-0.5
	c-0.1,0-0.2,0-0.3,0c-1.2,3.9-2.4,7.8-3.3,11.9c0.2,0.1,0.5,0.3,0.5,0.4c0,0.7,0.3,1.5-0.3,2.2c-0.3,0.3-0.6,0.7-0.2,1.2
	c0.2-0.2,0.4-0.4,0.6-0.7c0.1,0,0.2,0.1,0.2,0.1c0,0.7,0,1.4-0.1,2c-0.7,2.7-1.3,5.4-2.1,8.1c-0.7,2.5-1.6,5-2.4,7.5
	c-0.2,0.6-0.5,1.2-0.2,2c0.4-0.7,0.7-1.5,1.2-2.3c0.2,1.1-0.5,2,0.2,2.9c0.7-0.9,1.4-1.8,1.5-3c0.2-1.8,0.3-3.7,0.6-5.5
	c0.5-3.7,1.1-7.4,1.7-11.1C44.7,81.3,45.4,78.1,46,75c0-0.1,0-0.3,0.1-0.4c0,0-0.1,0-0.1,0C46,74.7,46,74.8,46,75z M71.7,102.1
	c0.3-0.1,0.7-0.1,1-0.2c2.5-0.8,5-0.9,7.6-1.1l0,0c-0.2,0.1-0.3,0.2-0.5,0.3c-1,0.4-2,0.7-3,1.1c0,0.1,0,0.1,0.1,0.2
	c4.3-0.6,8.6-1.2,13.1-1.8c-0.6,1.1-1.4,1.2-2.2,1.3c-3.8,0.5-7.5,0.8-11.3,0.7c-1.1,0-2,0.3-3.1,0.9c0.7,0.1,1.2,0.2,1.7,0.3
	c2.5,0.3,5,1.2,7.6,1c0.1,0,0.1,0.1,0.2,0.1c0,0.3,0,0.6-0.1,1c0.2,0,0.4,0,0.5,0c1.6-0.8,3.1-1.6,4.7-2.5c0.4-0.2,0.7-0.5,1.1-0.5
	c0.7,0.1,1.3,0,1.7-0.9c0.3,0.6,0.5,1,0.7,1.5c1.1-1.8,0.4-4.1,2.3-5.8c-0.7,0-1.1,0-1.4,0.1c-4.6,0.8-9.2,1.6-13.9,2.4
	c-0.4,0.1-0.8,0.2-1.2,0.4l0,0c-0.4,0.1-0.7,0.3-1.1,0.4c-0.5,0.1-1.1,0.1-1.6,0.3C73.6,101.4,72.6,101.7,71.7,102.1
	c-0.1,0-0.3,0-0.5,0c0,0.1,0,0.1,0,0.2C71.4,102.2,71.5,102.1,71.7,102.1z M64.2,105.8c1.1,0,7-2,7.7-2.6
	C69.3,104,66.7,104.8,64.2,105.8z M53,108.1c-1.5-0.5-2.7-0.2-3.9,0.8C50.5,109.3,51.7,108.7,53,108.1z M38.7,110.9
	c0.1,0.1,0.2,0.2,0.2,0.3c1.2-0.4,2.3-0.9,3.5-1.3c-1.2-0.5-2.2,0.1-3.2,0.4C39,110.4,38.9,110.7,38.7,110.9z M46.1,110.1
	c0-0.1-0.1-0.2-0.1-0.3c-0.8,0.2-1.5,0.4-2.3,0.6c-1.8,0.5-1.7,0.5-1.9,1.3C43.4,111.2,44.8,110.6,46.1,110.1z M77.3,105.8
	c-2.5,0.1-2.6,0.2-3.1,1.6C75.4,107.2,76.3,106.7,77.3,105.8z M57.4,107c-1.5,0.4-3-0.3-4.4,0.4C54.5,107.2,56,107.8,57.4,107z
	 M67.3,107.5c0.7-0.4,1.2-0.6,1.8-1C67.7,106.2,67.7,106.2,67.3,107.5z M32.4,142.4c-0.1,1.1-0.1,1.1,0.5,1.9
	C32.9,143.6,33.3,142.9,32.4,142.4z M10.3,171.8c0.1,0,0.1,0,0.2,0c0.1-0.4,0.2-0.9,0.3-1.3c-0.1,0-0.1,0-0.2,0
	C10.5,170.9,10.4,171.3,10.3,171.8z M116.7,93c0,0,0.1,0,0.1,0c0-0.4,0-0.9,0-1.3c0,0-0.1,0-0.1,0C116.7,92.1,116.7,92.6,116.7,93z
	 M89.9,184c0.1,0,0.2,0.1,0.3,0.1c0.1-0.3,0.2-0.6,0.3-1c-0.1,0-0.2-0.1-0.3-0.1C90,183.4,89.9,183.7,89.9,184z M37.8,109.2
	c-0.1,0-0.1-0.1-0.2-0.1c-0.1,0.3-0.1,0.5-0.2,0.8c0.1,0,0.1,0,0.2,0C37.6,109.7,37.7,109.5,37.8,109.2z M90.8,182
	c-0.1,0-0.2,0-0.3,0c0,0.2,0,0.4,0,0.6c0.1,0,0.1,0,0.2,0C90.7,182.4,90.8,182.2,90.8,182z M13.6,186c-0.1-0.1-0.2-0.2-0.3-0.2
	c-0.1,0-0.1,0.2-0.2,0.2c0.1,0.1,0.2,0.2,0.3,0.3C13.5,186.2,13.5,186.1,13.6,186z M32.6,140.5c-0.1,0.2-0.1,0.3-0.1,0.4
	c0.1,0,0.2,0.1,0.3,0.1c0,0,0.1-0.1,0.1-0.2C32.8,140.7,32.7,140.6,32.6,140.5z M12,129.6c0-0.1,0-0.1,0-0.2c-0.2,0-0.3,0.1-0.5,0.1
	c0,0.1,0,0.1,0,0.2C11.7,129.7,11.8,129.7,12,129.6z M57,106.1c0,0,0.1-0.1,0.1-0.1c0,0-0.1-0.1-0.1-0.1C57,106,57,106.1,57,106.1
	C57,106.1,57,106.1,57,106.1z M69.8,101.9c0,0-0.1,0-0.1,0C69.7,101.9,69.7,101.9,69.8,101.9C69.8,101.9,69.8,101.9,69.8,101.9
	C69.8,101.9,69.8,101.9,69.8,101.9z M68.5,101.7C68.5,101.7,68.5,101.6,68.5,101.7c-0.1-0.1-0.2-0.1-0.3-0.1c0,0,0,0,0,0.1
	C68.3,101.7,68.4,101.7,68.5,101.7z M62.7,106.2c0-0.1-0.1-0.1-0.1-0.1c0,0-0.1,0-0.1,0c0,0,0,0.1,0,0.1
	C62.6,106.2,62.6,106.2,62.7,106.2z M53.4,120.2C53.4,120.2,53.4,120.2,53.4,120.2c0.1,0.1,0.1,0.1,0.2,0.1
	C53.5,120.2,53.5,120.2,53.4,120.2C53.4,120.1,53.4,120.2,53.4,120.2z M46.2,121.9C46.2,121.9,46.2,121.9,46.2,121.9
	c-0.1-0.1-0.1-0.1-0.1-0.1c0,0,0,0.1,0,0.1C46.1,122,46.2,121.9,46.2,121.9z M47.2,121.7C47.2,121.7,47.2,121.6,47.2,121.7
	c-0.1-0.1-0.1-0.1-0.2-0.1c0,0,0,0.1,0,0.1C47.1,121.7,47.1,121.7,47.2,121.7z M9.7,130C9.7,130,9.6,130,9.7,130c-0.1,0-0.1,0-0.1,0
	C9.6,130.1,9.6,130.1,9.7,130C9.7,130.1,9.7,130.1,9.7,130z M77.7,116C77.7,116,77.6,115.9,77.7,116C77.6,116,77.7,116,77.7,116
	C77.7,116,77.7,116,77.7,116z M38.2,56.4c0,0,0-0.1,0-0.1c0,0-0.1,0-0.1,0C38.1,56.4,38.1,56.4,38.2,56.4
	C38.1,56.5,38.2,56.4,38.2,56.4z M70.4,102.4C70.4,102.4,70.4,102.4,70.4,102.4c-0.1-0.1-0.1,0-0.1,0
	C70.3,102.4,70.4,102.4,70.4,102.4C70.4,102.4,70.4,102.4,70.4,102.4z M48.9,107.3C48.9,107.3,48.9,107.3,48.9,107.3
	c-0.1,0-0.1,0-0.1,0C48.8,107.4,48.9,107.4,48.9,107.3C48.9,107.4,48.9,107.3,48.9,107.3z"/>
<path id="_x2E_svg_173_" fill="#FFFFFF" d="M472.1,13.1c-2.6,1.1-4.9,2.7-7,4.5c-1.1,0.9-2.2,1.9-3.3,2.8c-0.5,0.4-0.9,0.9-1.4,1.4
	c0.6,0.5,1,0.2,1.4-0.1c2-1.4,4.1-2.8,6.1-4.1c0.6-0.4,1.3-0.7,2-0.8c0,0.1,0.1,0.2,0.1,0.2c-0.7,0.5-1.4,1-2.1,1.4
	c-0.3,0.2-0.7,0.3-0.9,0.6c-1.4,1.3-2.8,2.5-4.2,3.9c-0.8,0.8-1.6,1.6-2.4,2.5c-0.9,1.1-0.9,1.4,0.5,2.3c0.3-0.8,0.5-1.5,0.8-2.3
	c0.7,0.9,1.1,1.7,0.7,3c-0.4,1.5,0.5,2.5,0.8,3.7c0.1,0,0.2,0,0.3,0c0.2-0.6,0.3-1.1,0.5-1.7c0.1,1.7-0.4,3.4,1.2,5
	c0.3-1.2,0.7-2.2,1-3.3c0.1,0,0.2,0,0.3,0c0,0.3,0.1,0.5,0.1,0.8c0,1.6-0.1,3.1-0.1,4.7c-0.1,1.7,0.2,2.2,1.9,2.6
	c1.4,0.4,2.8,0.6,4.2,1c1.9,0.6,3.7,1.5,5.2,2.7c1.3,1,2.6,2.2,3.7,3.4c1.4,1.5,2.7,3.2,4,4.8c0.4,0.4,0.7,0.9,1,1.4
	c0.3,0.4,0.5,0.9,0.8,1.3c-0.1-2-0.5-3.9-1.2-5.7c-0.1-0.4-0.2-0.8-0.3-1.2c0,0,0,0,0,0c0.5,0.9,1.2,1.8,1.5,2.8
	c0.9,2.6,1.7,5.3,2.5,8c0.1,0.3,0.2,0.5,0.3,1c0.3-0.5,0.5-0.8,0.7-1.4c0.1,0.4,0.2,0.6,0.2,0.8c0,1,0,2.1,0,3.1
	c0,0.6-0.2,0.9-0.6,1.3c-0.3,0.3-0.5,0.8-0.9,1.4c0.1,1,0.1,2.4,0.3,3.6c0.3,2-0.1,3.9-1.1,5.7c-0.7,1.3-1.6,2.5-2.6,3.8
	c-0.1-1.2,0.2-2.2,0.5-3.3c0.3-1.1,0.9-2.1,1.4-3.2c-0.3,0-0.5-0.1-0.8-0.1c0.1-1.3,0.2-2.6,0.3-3.8c-0.1,0-0.2,0-0.3-0.1
	c-0.1,0.2-0.3,0.4-0.3,0.6c-0.4,1.4-0.7,2.9-1.2,4.3c-0.2,0.6-0.7,1.1-1.2,1.5c-1.4,1.3-3,2.5-4.4,3.8c-1.5,1.3-2.9,2.7-4.4,4.2
	c-0.4,0.4-0.7,0.9-0.9,1.4c-0.5,0.9-1,1.7-2.2,1.7c-0.3,0-0.7,0.2-1,0.4c-3.3,1.9-6.5,3.9-9.8,5.8c-1.7,1-3.5,1.8-5.4,2.4
	c-1.2,0.4-2.4,0.8-3.6,1.2c-0.6,0.2-1.2,0.1-1.2-0.8c-2,0.1-3.6,1.7-5.7,1.3c0.3-0.6,0.6-1,0.8-1.5c0-0.1-0.1-0.2-0.1-0.2
	c-0.4,0.1-0.8,0.1-1.1,0.2c-1.3,0.5-2.4,0.3-3.6-0.5c-1.2-0.7-2.5-1.3-3.8-1.8c-1.3-0.5-2.2-1.2-2.8-2.4c0-0.1-0.1-0.1-0.1-0.2
	c0,0-0.1,0.1-0.1,0.1c0.1,0,0.1,0.1,0.2,0.1c0,0.4,0,0.9,0,1.5c-0.7-0.7-0.8-1.6-1.4-2.5c0.1,1.4,0.3,2.6-0.5,3.8
	c-0.3-1.4-1.3-2.3-2-3.3c-2.3-3.6-3.5-7.5-3.7-11.7c-0.1-2-0.1-4,0.7-5.9c0.1-0.2,0-0.5,0-0.7c0-0.2-0.2-0.5-0.2-0.7
	c0.3-2.1,0.7-4.2,1.2-6.3c0.1,0.8,0.2,1.6,0.4,2.6c0.3-0.7,0.5-1.2,0.7-1.7c0.1,0,0.1,0,0.2,0c0.2,1.2,0.4,2.3,0.5,3.5
	c0.1,0,0.1,0,0.2,0c0.2-0.6,0.3-1.2,0.5-1.9c0.1,0,0.1,0,0.2,0c0,0.3,0.1,0.7,0.1,1c0.1,0,0.2,0.1,0.3,0.1c0.6-0.1,1.1,0,1.4,0.5
	c1.4,1.6,2.9,3.3,4.2,5c0.6,0.8,1,1.7,1.5,2.6c-0.1,0.1-0.2,0.1-0.2,0.2c-0.4-0.3-0.8-0.5-1.4-0.9c-0.1,0.4-0.1,0.7-0.2,1.1
	c-0.8-0.9-1.5-1.7-2.3-2.5c-0.5-0.5-0.8-1.2-1.7-0.9c0-1.1-1-1.5-1.6-2.3c-0.2,0.4-0.3,0.6-0.5,0.9c0.7,0.5,1.4,0.9,2,1.3
	c0.6,0.8,1.2,1.5,1.9,2.3c1.2,1.3,2.5,2.6,3.8,3.9c0.2,0.2,0.4,0.3,0.4,0.3c0.4-0.1,0.8-0.4,1-0.2c0.7,0.5,1.4,1,2,1.5
	c0.2,0.2,0.1,0.6,0.2,0.9c0.1,0.5,0.1,0.9,0.3,1.4c0.1,0.3,0.3,0.5,0.4,0.7c1,1.9,2.1,2.2,3.9,1.1c1.2,0.9,2.5,0.2,3.7-0.1
	c0.3-0.1,0.4-0.1,0.7,0c0.3,0.2,0.8,0,1.2,0c0.1-0.1,0.1-0.3,0.2-0.4c-0.2-0.1-0.4-0.2-0.8-0.3c0.5-0.4,0.8-0.6,1.2-0.9
	c3.2-2,6.1-4.4,8.8-6.9c0.9-0.8,1.5-1.8,2.3-2.7c1-1.1,1.8-2.1,1.8-3.8c0-1.2,0.8-2.5,1.3-3.8c-0.4-0.4-0.3-0.9-0.2-1.5
	c0.3-1.4,0.4-2.8,0.4-4.2c0.1-1.2,0-1.2,0.9-1.9c-0.2-0.3-0.6-0.7-0.7-1.1c-0.1-0.3-0.2-0.8-0.1-1.1c0.2-0.5,0.8-0.4,1.2-0.2
	c0.4,0.3,0.8,0.6,1,1c0.3,0.4,0.5,0.9,1.1,1.1c0.3-0.9,0.2-1.6-0.7-2.1c-0.4-0.2-0.8-0.6-1.1-0.9c0.1-0.4,0.3-0.9,0.2-1.2
	c-0.1-0.3-0.5-0.7-0.8-0.9c-0.9-0.6-1.9-1-3.2-1c0,0.3-0.1,0.6-0.1,1c-3.1-1.4-5.9-2.9-8.8-4.7c0.1,0.4,0.2,0.7,0.3,1.1
	c-0.7,0-1.4,0-2,0c-0.3,0-0.7,0-0.7,0.4l0,0c0,0.1,0,0.2,0,0.3l0,0c1.2,0.8,2.3,1.5,3.5,2.3c0.4,0.2,0.7,0.5,1,0.9
	c-1.7-0.4-3.5-0.4-4.7-1.9c-1.7-2.1-3.3-4.2-5-6.3c-0.3-0.4-0.6-0.8-0.9-1.2c-0.2,1.3,0.1,3,0.9,5c0.6,1.6,1.2,3.1,1.9,4.7
	c-0.6,0.4-1.1,0.3-1.6,0.1c-1.7-0.6-2.8-1.7-3.7-3.2c-1.6-2.5-2.2-5.4-2.2-8.3c0-0.2,0-0.5,0-0.7c0.2-1.5-0.1-2.6-1.4-3.6
	c-0.5-0.4-0.8-1-0.7-1.9c0.3,0.3,0.6,0.5,0.9,0.8c0.2-0.5,0.5-0.9,0.7-1.4c0.3-0.6,0.7-1.1,1-1.7c0.2-0.3,0.3-0.6,0.3-0.9
	c0.1-0.5,0.1-1,0.2-1.2c0.5-0.5,0.8-0.7,1-1.1c0.8-1.6,1.6-3.3,2.4-5c0.2-0.5,0.4-1,0.6-1.6c-0.1-0.1-0.2-0.1-0.3-0.2
	c-0.2,0.2-0.5,0.4-0.7,0.7c-0.8,0.8-1.2,1.6-1.5,2.7c-0.2,0.6-0.5,1.1-0.8,1.9c-0.2-0.5-0.3-0.8-0.4-1.2c-1.7,1.1-1.9,3.1-3,4.7
	c-0.3-1.4-0.1-2.6,0.1-3.8c0.4-2.2,1.1-4.2,2.2-6.1c0.9-1.6,1.9-3.1,3.9-3.5c0.4-0.1,0.7-0.4,1.2-0.6c0.1,0.5,0.1,0.9,0.2,1.3
	c-0.1,0.1-0.3,0.1-0.4,0.2c0,0.1,0.1,0.1,0.1,0.2c0.1-0.1,0.2-0.2,0.2-0.4c0.3-0.2,0.6-0.4,1-0.5c0.2-0.1,0.4,0,0.5,0.1
	c0.1,0.1,0.1,0.3,0.1,0.4c-0.1,0.4-0.3,0.7-0.3,1.2c1.5-1.3,2.9-2.6,4.4-3.9c0.3-0.2,0.6-0.5,0.3-0.9c0.2,0,0.4,0,0.7-0.1
	c0.1-0.1,0.1-0.1,0.2-0.2c-0.1,0-0.2,0.1-0.3,0.1c-0.2,0.1-0.4,0.1-0.6,0.2c-1.1,0.5-2.1,1-3.2,1.6c-0.2-0.7,0.2-1,0.5-1.4
	c1.8-1.8,3.7-3.5,5.5-5.3c0.3-0.3,0.7-0.4,1.1-0.6c5.4-2.3,10.9-4.6,16.3-6.9c0.1,0,0.2-0.1,0.5-0.4c-0.5-0.1-0.7-0.1-1-0.1
	c-1,0.1-2,0.2-3,0.4c-0.8,0.1-1.7,0.2-2.6,0.4c0.1-0.6,0.6-0.5,0.8-0.6c2.9-0.9,5.8-1.7,8.9-2.1c0.2,0,0.4-0.1,0.6-0.2
	c0.2,0,0.5,0,0.7,0c-0.7,0.6-1.4,1.2-2.4,1.9c1.5,0.3,2.7,0.4,3.8,0.7c1.1,0.3,2.2,0.7,3.4,0.9c-1-0.5-1.9-1.1-2.9-1.6
	c0-0.1,0-0.2,0-0.3c0.3,0,0.7-0.1,1,0c2.1,0.6,4.3,1.1,6.4,1.9c1.5,0.5,2.7,1.6,3.7,2.8c0.6,0.8,1.3,1.5,2,2.2
	c0.6,0.6,0.6,1.2,0.5,1.9c-0.1,0.8-0.1,1.6-0.2,2.5c1-0.2,0.6-1.2,1.2-1.5c0.8,1.3,0.7,3.2-0.5,5.5c-0.4-0.6-0.7-1.1-1.1-1.7
	c-0.2,0.4-0.3,0.6-0.4,0.8c-1.2,2.9-2.3,5.7-3.5,8.6c-0.1,0.2-0.1,0.3-0.2,0.5c-0.7,1.6-1.1,1.9-3,1.6c1.1-1.9,0.7-4,1.2-6
	c0.5-2,0.9-4,1.1-6c-0.1,0-0.2-0.1-0.3-0.1c-0.2,0.7-0.5,1.4-0.7,2.1c-0.1,0-0.1,0-0.2,0c-0.1-1-0.2-2.1-0.3-3.1
	c-0.1-0.7-0.2-1.4-0.4-2c-0.5-1.4-1.5-2.2-3-2.4c-1.3-0.1-2.6-0.2-3.8,0.3c-0.4,0.2-0.8,0.1-1.1-0.2c-0.2-0.2-0.5-0.3-0.7-0.3
	c-1.4,0.3-2.7,0.7-3.8,1.7c0.3,0,0.5,0,0.8,0c1.5,0,3-0.1,4.5,0.3c0.5,0.1,1.1,0,1.7,0c0.1,0.3,0.1,0.6,0.2,0.9l0,0
	c-2.4-0.2-4.5,0.6-6.5,1.7c-0.7,0.4-1.4,0.7-2.4,0.7c1.6-1.1,3.1-1.7,4.7-2.3c0-0.1,0-0.2-0.1-0.3c-1,0.1-2,0.2-2.9,0.4
	c-1.4,0.3-2.9,0.7-4.3,1.1l0,0C472.4,13.1,472.2,13.1,472.1,13.1L472.1,13.1z M469.3,62.8c0.1,0,0.2,0.1,0.3,0.1
	c0.7-0.7,1.4-1.3,2.1-2c0.5,0.3,0.8,0.5,1.2,0.8c-1.2,2.2-3.2,4-3.7,6.6c0.8-0.5,1.4-1.2,2.1-1.8c0.5-0.5,0.9-1,1.4-1.4
	c0.5-0.4,1.1-0.7,1.8-0.2c0.3-0.5,0.5-0.9,0.9-1.6c-0.5,0.2-0.8,0.3-1.1,0.5c0.1-0.3,0.2-0.4,0.2-0.5c0.7-1.5,0.7-1.5-0.4-2.6
	c-0.3-0.2-0.4-0.6-0.6-0.9c-0.2-0.4-0.4-0.7-0.6-1.1c0-0.1-0.2-0.1-0.3-0.1c-0.1,0.4-0.2,0.7-0.3,1.2c-0.8-0.4-1.5-0.8-2.4-1.2
	C469.8,60.1,469.6,61.4,469.3,62.8z M459,29.5c-0.1,0-0.2,0.1-0.3,0.1c-0.1,2.9-0.1,5.7,2.2,8c1.1-0.6,2-0.1,2.7,0.7
	c0.2,0.2,0.4,0.4,0.7,0.5c0.5,0.3,1,0.8,1.8,0.6c0-1-0.1-1.9-0.7-3c-0.2,0.4-0.3,0.6-0.4,0.8c-0.2,0.2-0.4,0.3-0.6,0.5
	c-0.2-0.2-0.4-0.5-0.5-0.7c-0.1-0.4-0.2-0.8-0.3-1.5c-0.5,0.5-0.7,0.8-1.1,1.2c-1-1.1-1.8-2.1-2.3-3.4
	C459.8,32.1,459.4,30.8,459,29.5z M430.8,84.6c0.1,0,0.3,0,0.4-0.1c0-0.8,0.1-1.6,0-2.3c-0.2-2.6-0.5-5.2-0.8-7.8
	c0-0.3-0.2-0.5-0.3-0.8c-0.2,0.3-0.2,0.6-0.3,0.8c-0.5,1.3-0.5,2.6-0.1,4c0.1,0.4,0.1,0.9,0.2,1.3C430.1,81.3,430.5,83,430.8,84.6z
	 M463.9,78.1c2.7-1,5.9-4.5,5.8-6.2c-0.5,0.3-1.1,0.4-1.4,0.8c-1.3,1.5-2.5,3-3.8,4.5C464.2,77.4,464.1,77.8,463.9,78.1z
	 M466.1,50.8c-0.7-1.4-4.3-3.7-5.7-3.8C461.1,48.2,464.6,50.5,466.1,50.8z M461.8,79.9c-1-0.1-3.8,1.1-4.8,1.9
	C458.9,82.3,460.5,81.6,461.8,79.9z M488.2,60.3c-0.1,0-0.2,0-0.3,0c0,0.8,0,1.5,0,2.3c0,0.8-0.1,1.6-0.2,2.3
	C489.3,63.4,488.6,61.8,488.2,60.3z M471.7,69.7c0.7-0.9,1.3-1.9,1.6-3C472.4,67.5,471.7,68.5,471.7,69.7z M474.1,57.3
	c-0.4,0.4-0.7,0.8-0.4,1.3c0.3,0.6,0.8,0.6,1.3,0.5C475.2,58.2,474.5,57.9,474.1,57.3z M430.4,69.7c0.1,0,0.2,0,0.3-0.1
	c-0.1-0.6-0.3-1.3-0.4-1.9c-0.1,0-0.2,0-0.2,0C430.2,68.4,430.3,69,430.4,69.7z M432.8,88.9c-0.1,0-0.1,0.1-0.2,0.1
	c0.1,0.2,0.2,0.3,0.3,0.5c0,0,0.1,0,0.1-0.1C432.9,89.2,432.9,89,432.8,88.9z M488.1,59.2c0,0-0.1,0-0.1,0c0,0.1,0,0.2,0,0.3
	c0,0,0.1,0,0.1,0C488.1,59.4,488.1,59.3,488.1,59.2z M449.5,22.7c0.1,0,0.1-0.1,0.2-0.1c0,0,0-0.1,0-0.2c-0.1,0-0.2,0.1-0.2,0.2
	C449.4,22.5,449.5,22.6,449.5,22.7z M473.9,65.7C474,65.7,474,65.7,473.9,65.7c0.1-0.1,0.1-0.1,0.1-0.1
	C474,65.6,473.9,65.6,473.9,65.7C473.9,65.7,473.9,65.7,473.9,65.7z"/>
<path id="_x2E_svg_172_" fill="#FFFFFF" d="M500,13.1c-0.2,0.5-0.5,1-0.7,1.4c-0.1-1-0.2-1.9,0.7-2.4C500,12.4,500,12.8,500,13.1z"
	/>
<path id="_x2E_svg_171_" fill="#FFFFFF" d="M189.7,29.9c-0.3-0.1-0.6-0.2-0.9-0.2c-5.1,0.5-10.1,1.5-14.9,3.2
	c-1.3,0.5-2.5,1.1-3.8,1.6c0.8-0.9,1.5-2,2.8-2.4c8.4-2.3,16.9-3.7,25.6-3.5c2.7,0.1,5.4,0.4,8,1.3c0.3,0.1,0.7,0.1,1.1,0.1
	c1.5-0.1,3.1-0.4,4.6-0.4c0.7,0,1.4,0.4,2.1,0.8c-0.5,0.1-1,0.1-1.5,0.2c0,0.1,0,0.2,0,0.3c1.6,0.3,3.4-0.2,4.8,0.9
	c-4.3,0.4-8.5-0.4-13,0c0.2,0.3,0.3,0.6,0.5,0.6c0.8,0.3,1.6,0.5,2.3,0.7c2.6,0.7,5.2,1.4,7.8,1.9c2.5,0.5,5,0.9,7.5,1.3
	c0.9,0.1,1.6,0.5,2,1.4c1.4,2.9,2.9,5.7,4.3,8.6c1.3,2.8,1.9,5.9,1.9,9c0,0.2,0,0.3,0,0.5c0.8,4.9,0.1,9.8-0.4,14.7
	c-0.2,2.2-0.6,4.3-0.9,6.5c-0.1,0.6-0.3,1.2-0.5,1.8c-0.1,0.2-0.2,0.5-0.2,0.7c-0.2,3.5-1.4,6.8-2.3,10.2c-1,3.7-2.3,7.3-3.6,10.9
	c-0.7,1.8-1.5,3.6-2.4,5.4c-0.9,1.9-1.7,3.7-2.7,5.6c-1.3,2.5-2.8,5-4.2,7.5c-0.8,1.4-1.6,2.8-2.5,4.1c-0.3,0.4-0.5,0.9-0.8,1.2
	c-0.8,0.7-1.1,1.5-1.4,2.4c-2.1,5.9-5.1,11.2-8.7,16.3c-1.3,1.8-2.7,3.6-4.1,5.4c-0.3,0.5-0.8,0.8-1.3,1.4c0-0.7,0.3-1,0.6-1.3
	c1.3-1.7,2.6-3.4,3.9-5.1c0.5-0.6,0.9-1.3,1.4-1.9c1.4-1.9,2.5-3.9,3.5-6.1c1.6-3.9,3.3-7.7,5-11.5c0.2-0.4,0.3-0.7,0.5-1.4
	c-0.4,0.3-0.6,0.4-0.8,0.5c-1.8,1.7-3.4,3.5-4.7,5.7c-0.9,1.4-1.9,2.7-2.9,4c-0.7,1-1.4,2-2.1,3c-0.8,1.1-1.7,2.2-2.5,3.3
	c-0.5,0.7-1.1,1.3-1.6,2c-0.4,0.5-0.8,0.7-1.5,0.8c-0.6,0.1-1.2,0.3-1.7,0.6c-1.2,0.7-2.3,1.5-3.5,2.3c-0.2,0.2-0.4,0.3-0.8,0.7
	c1.2,0.1,1.9-0.6,2.7-0.8c0.8-0.3,1.6-0.6,2.4-0.8c-5.9,5.9-13.2,9.4-21.1,11.8c0.3-0.3,0.6-0.7,0.9-1c0.1,0,0.1,0,0.2,0
	c0,0-0.1-0.1-0.1-0.1c0,0.1-0.1,0.1-0.1,0.2c-1.5,0.4-2.9,0.8-4.4,1.2c-0.7,0.2-1.3,0.4-1.7-0.3c-3,1.2-5.9,2.4-9.1,2.2
	c2.5-1,4.9-2,7.4-3c0-0.1,0-0.1,0-0.2c-0.2,0-0.4-0.1-0.6,0c-3.2,0.7-6.3,1.4-9.5,2.1c-0.4,0.1-0.8,0.3-1.4,0.5
	c0.5,0.4,0.9,0.7,1.5,1.2c-0.8,0.1-1.4,0.2-1.9,0.2c-2.4-0.1-4.8,0-7.3-0.5c-1-0.2-2.1,0-3.2-0.2c-1-0.1-2-0.3-2.9-0.7
	c-1.7-0.7-3.3-1.6-5-2.4c-1-0.5-1.9-1.3-2.5-2.3c-0.2-0.3-0.4-0.6-0.7-0.7c-1.9-0.6-3-2-3.6-3.7c-0.6-1.6-1.3-3.1-2.3-4.5
	c-0.8-1.1-0.9-2.3-1.4-3.5c-0.8-2.2-0.7-4.5-1.1-6.8c-0.4-2.3-0.7-4.6-0.9-6.9c-0.2-2.1-0.4-4.2,0-6.3c0.1,0.4,0.3,0.9,0.4,1.3
	c0,0,0.1,0,0.1,0c0-1.3,0-2.7,0-4c0-3.4,0.5-6.8,1-10.2c0-0.3,0.2-0.6,0.3-0.9c1.5-4.4,2.9-8.7,4.4-13.1c0.1-0.4,0.2-0.9,0.3-1.3
	c0-0.1,0.1-0.1,0.1-0.2c0,0.1,0,0.1-0.1,0.2c-0.1,0-0.2,0-0.3,0c0,0,0,0,0,0c0.1-0.4,0.2-0.9,0.3-1.3c0.8-2.1,1.6-4.1,2.4-6.2
	c0.6-1.5,1.4-3,2.1-4.4c1.2-2.2,2-4.6,3-6.8c0.2-0.5,0.2-1.2,0.8-1.4l0,0c0,0.1,0,0.1,0,0.2c0.1-0.1,0.2-0.2,0.3-0.4
	c0.4-0.9,0.8-1.7,1.1-2.6c0.9-2,1.8-4.1,2.8-6.1c-0.2,0-0.3,0-0.4,0l0,0c0-0.2,0-0.4,0.1-0.6c1-1.8,2.1-3.6,3.2-5.4
	c0.1-0.2,0.3-0.3,0.4-0.4c0,0,0,0,0,0c-0.2,0.4-0.3,0.8-0.5,1.2c-0.6,1.2-1.3,2.5-2,3.8c0.5,0,0.8-0.1,1.1-0.1c0,0.1,0,0.3,0,0.4
	c0.1,0,0.2,0.1,0.2,0.1c0.2-0.4,0.5-0.8,0.7-1.3c0-0.2,0.1-0.5,0.1-0.7c2.4-3.7,5.1-7.2,8-10.5c0.1-0.1,0.2-0.1,0.3-0.2l0,0
	c-0.6,0.8-1.1,1.7-1.7,2.5c0,0,0.1,0.1,0.1,0.1c0.3-0.3,0.6-0.5,0.8-0.8c1.2-1.2,2.4-2.5,3.7-3.6c1-0.9,2.1-1.7,3.1-2.6
	c1.4-1.2,2.7-2.4,4.1-3.5c0.4-0.3,0.9-0.6,1.4-0.8c1.3-0.4,2.6-0.8,3.9-1.3c0.1,0.4,0.2,0.7,0.3,1c0.1,0,0.3-0.1,0.4-0.1
	c2.1-1.5,4.2-3,6.3-4.5c1.2-0.8,2.4-1.6,3.7-2.1c0.1,0.1,0.1,0.1,0.2,0.2c-0.3,0.3-0.6,0.7-0.9,1c-0.4,0.3-0.8,0.6-1.2,0.9
	c0.4,0.6,0.8,0.2,1.2,0.1c0.4-0.1,0.7-0.3,1.3-0.5c-0.6,1.3-1.9,1.3-2.4,2.4c0.4-0.1,0.8-0.2,1.2-0.3c1.9-0.6,3.8-1.4,5.8-1.8
	c4.4-0.9,8.7-2.5,13.2-3c0.6-0.1,1.1-0.4,1.8-0.7c-0.4-0.4-0.6-0.6-1.1-1c0.5-0.1,0.9-0.3,1.2-0.3c1.6,0,3.2,0,4.8,0
	c0.5,0,0.9,0,1.4-0.2c-0.2-0.1-0.4-0.2-0.5-0.2c-3.4-0.6-6.8-0.5-10.2-0.5c-0.8,0-1.6,0-2.5,0.1C191.1,29.5,190.4,29.7,189.7,29.9
	L189.7,29.9z M141.5,64.4c0.1-0.2,0.1-0.4,0.2-0.6c0.1,0,0.1,0,0.2-0.1c-0.1,0-0.1,0.1-0.2,0.1C141.7,64.1,141.6,64.3,141.5,64.4
	c-0.1,0.2-0.2,0.3-0.3,0.5c-0.2,0.3-0.4,0.6-0.7,0.9c0.1,0.1,0.2,0.1,0.3,0.2c0.2-0.3,0.3-0.7,0.5-1
	C141.4,64.8,141.5,64.6,141.5,64.4z M145.1,94c-0.6,0.5-0.7,1.3-1,2.2c0.5-0.3,0.7-0.5,1-0.7c0.2-0.3,0.4-0.5,0.6-0.8
	c-0.1,0-0.2-0.1-0.3-0.1c-0.1,0.3-0.2,0.6-0.3,0.9C144.6,95,145,94.5,145.1,94C145.1,93.9,145,93.9,145.1,94c-0.1-0.1,0-0.1,0-0.2
	C145.1,93.9,145.1,93.9,145.1,94z M196,136.7c-0.2,0-0.5,0-0.7,0.1c-1.4,1.5-2.7,3-4.2,4.6c1.9-0.5,3-1.3,3.7-2.8
	C195.2,138,195.6,137.4,196,136.7c0-0.1,0-0.2-0.1-0.3C196,136.5,196,136.6,196,136.7z M157.1,70.9c-0.5,0.8-1.1,1.6-1.4,2.5
	c-0.7,2.9-2.3,5.4-3.7,8c-0.5,0.9-1.3,1.6-1.6,2.5c-0.2,0.6-0.4,1.2-0.7,1.8c-0.8,1.7-1.6,3.4-2.4,5.1c-0.2,0.4-0.3,0.8-0.5,1.2
	c1.8-2,3.5-4.1,5.2-6.1c0.2-0.3,0.6-0.5,0.8-0.8l0,0c-0.1,0.3-0.3,0.7-0.4,1c-0.9,1.7-1.8,3.3-2.7,5c-3.9,7.4-6.8,15.1-8.7,23.3
	c-0.1,0.5-0.2,0.9-0.4,1.4c-0.1,0-0.2,0-0.2-0.1c0.5-4.9,1.6-9.7,2.8-14.5c-1,1.1-1.8,2.3-1.8,3.9c0.1,1.9-0.4,3.7-1.1,5.4
	c-0.7,1.7-1.1,3.3-0.9,5.2c0.1,0.6,0,1.2-0.2,1.7c-0.4,1.8-0.9,3.6-1.4,5.4c-0.1,0.3-0.1,0.8,0.1,1c0.4,0.5,0.4,0.8,0.2,1.4
	c-0.3,0.9,0,1.3,0.9,1.7c0.3-2.5,0.5-5.1,0.7-7.6c0.1,1.9,0.1,3.9,0,5.8c0,1.1-0.2,2.2,0.6,3.2c0.1,0.2,0.1,0.4,0.2,0.6
	c0.5,1.6,0.8,3.3,1.7,4.7c1.2,1.7,2.1,3.8,4.1,4.8c0.5,0.2,0.9,0.6,1.4,0.8c0.5,0.3,0.6,0.7,0.2,1.1c-0.2,0.2-0.5,0.3-0.8,0.5
	c-0.4,0.2-0.6,0.4-0.4,0.9c0.3,0,0.6,0,0.9,0c2.3-0.4,4.6-1,6.9-0.6c0.2,0,0.3,0,0.5,0c2.5-0.4,5.1-0.7,7.4-2
	c0.4-0.2,0.9-0.2,1.3-0.3c0.7-0.2,1.5-0.4,2-0.8c2.6-2,5.2-4.1,7.8-6.2c1.4-1.1,2.6-2.4,4.3-3c0.1,0,0.2-0.1,0.3-0.1
	c0.2,0.2,0.3,0.4,0.6,0.7c0.4-0.4,0.7-0.8,1-1.2c1-1.3,2.1-2.4,3.6-3.2c0.3-0.1,0.5-0.2,0.8-0.3c-0.5,0.8-1,1.4-1.6,2
	c-2.9,3.2-5.9,6.4-8.8,9.6c-0.3,0.3-0.7,0.7-0.7,1.4c0.6-0.2,1-0.4,1.4-0.6c1.1-0.7,2.3-1.4,3.3-2.1c1.6-1.2,3.2-2.4,4.7-3.7
	c1.2-1,2.3-2,3.1-3.4c1.2-2,2.8-3.6,3.8-5.7c0.1-0.2,0.2-0.4,0.4-0.4c0.8-0.2,1-0.9,1.4-1.5c0.7-1,1.5-2.1,2.2-3.1
	c0.1-0.2,0.4-0.3,0.6-0.5c-0.5,1.2-1,2.2-1.7,3.2c-0.4,0.6-1,1.2-1.5,1.8c-0.3,0.3-0.5,0.7-0.8,1.1c-0.3,0.5-0.2,0.8,0.4,1.2
	c0.4-0.4,0.9-0.7,1.3-1.1c2.6-3,5.1-6,7.9-8.9c1.2-1.2,1.7-2.7,2.2-4.1c0.4-1,0.8-2.1,1.2-3.1c0.2-0.5,0.2-0.9-0.1-1.4
	c-0.3-0.4-0.4-0.9-0.7-1.6c-0.7,0.9-1.4,1.6-2,2.4c-0.1,0-0.2-0.1-0.2-0.1c0.1-0.4,0.1-0.8,0.3-1.1c0.5-1,1.1-2,1.7-3
	c0.4-0.7,0.9-1.5,1.4-2.2c0.1-0.1,0-0.2,0-0.4c-0.4,0-0.7,0-1,0c-0.2-1.3,0.6-2.3,1.2-3.3c0-0.1,0.2-0.2,0.3-0.1
	c0.4,0.1,0.5-0.2,0.6-0.5c0.2-0.5,0.3-1,0.6-1.7c-0.2-0.1-0.4-0.3-0.6-0.4c-0.8-0.4-0.8-1.1-0.5-1.8c1.7-5.5,3.3-11,5-16.4
	c1.7-5.4,3.8-10.6,5.1-16.1c0.1-0.2,0.1-0.5,0.1-0.7c-1.1,1.3-1.9,2.8-2.9,4.2c-0.1,0-0.2-0.1-0.2-0.1c0.1-0.9,0.2-1.8,0.3-2.7
	c-0.1,0-0.2-0.1-0.3-0.1c-0.2,0.4-0.4,0.8-0.7,1.1c-0.1-0.1-0.2-0.1-0.3-0.2c0.3-1,0.6-1.9,0.9-2.9c0.2-0.7,0.2-1.4-0.6-1.8
	c0.4-0.9,0.8-1.8,1.3-2.7c0.1,0,0.2,0,0.3,0.1c0.1,0.6,0.1,1.1,0.1,1.7c0,0.5,0,1.1,0,1.8c1.9-1.7,1.4-3.3-0.3-5.4
	c-0.4,0.2-0.7,0.4-1.1,0.5c-1,0.1-1.8,0.6-2.5,1.2c-0.4,0.4-0.9,0.8-1.3,1.1c-0.2,0.1-0.6,0.2-0.7,0.1c-0.2-0.1-0.3-0.5-0.2-0.7
	c0.1-0.3,0.3-0.6,0.4-0.9c0.8-1.1,1.5-2.2,2.3-3.4c0.2-0.4,0.4-0.7,0.6-1.1c-0.1-0.1-0.1-0.2-0.2-0.2c-0.6,0.3-1.3,0.5-1.9,0.8
	c-0.7,0.4-1.3,0.9-1.9,1.4c-0.7,0.5-1,0.5-1.5-0.2c-0.5-0.7-0.5-1.1,0.1-1.8c0.5-0.5,1-1,1.6-1.6c-1-0.2-1.6,0.3-2.2,0.7
	c-1,0.6-1.3,0.6-2.2-0.1c-1-0.7-1-1-0.8-2.3c-0.3,0-0.6,0-0.9,0c-1.2,0.2-2.3,0.2-3.4-0.1c-2.7-0.6-5.4-0.1-8,0.7
	c-0.4,0.1-0.8,0-1.4,0c-1,0.7-2.1,1.4-3.3,2.3c-0.1-1.4,0.8-2.1,1.7-3c-1.2,0-2.3-0.2-3.1,0.1c-1.1,0.4-2.4,0.7-3.3,1.6
	c-0.3,0.3-0.7,0.5-1.1,0.8c-2.4,1.5-4.7,3-7.1,4.4c-0.2,0.1-0.5,0.2-0.7,0.3c-0.1-0.1-0.1-0.2-0.2-0.3c0.7-1.1,1.9-1.7,3-2.5
	c1.1-0.8,2.1-1.7,3.2-2.5c1.1-0.8,2.2-1.4,3.4-2.2c0-0.1-0.1-0.2-0.1-0.3c-0.5,0.1-1,0.2-1.5,0.4c-1.5,0.9-3,1.8-4.5,2.8
	c-3.1,2.1-5.8,4.6-8.1,7.5c-0.9,1.1-1.7,2.1-2.7,3.1c-2.6,2.7-4.6,5.9-6.9,8.9c-0.5,0.6-0.8,1.4-1,2.3c0.3,0,0.4,0,0.6-0.1
	c1-0.4,1.9-1.1,2.7-1.9c3.2-3.5,6.3-7,9.5-10.5c0.3-0.3,0.5-0.8,1.2-0.8c-0.4,0.7-0.8,1.2-1.1,1.8c-3.2,5.2-6.5,10.5-9.7,15.8
	c-0.2,0.3-0.4,0.6-0.6,0.9c-0.1,0.1-0.4,0.2-0.8,0.4c0.2-0.7,0.4-1.1,0.5-1.5C156.7,72.4,156.9,71.6,157.1,70.9
	c0-0.1,0.1-0.2,0.2-0.2c0,0-0.1,0-0.1-0.1C157.2,70.7,157.2,70.8,157.1,70.9z M205.8,100c0.1,0,0.1,0,0.2,0.1
	c0.2-0.4,0.4-0.7,0.6-1.1c0.8-1.9,1.7-3.7,2.4-5.7c1.4-4,2.8-8,4.4-11.9c0.9-2.3,1.8-4.6,2.2-7c0.3-1.8,0.5-3.5-0.5-5.2
	c-1,0.3-1.2,1.7-2.4,1.9c0.2-0.8,0.3-1.5,0.5-2.2c-0.3,0.2-0.4,0.4-0.5,0.6c-0.3,1-0.6,2-0.9,3.1c-0.7,2.4-1.4,4.8-2.6,6.9
	c-1.3,2.4-1.6,5-2,7.9c0.8-0.8,0.9-2.1,2.1-2.2c0.5,2.3,0.1,4.3-1.3,6.2c-0.5,0.7-0.8,1.5-0.9,2.4c-0.2,1.3-0.4,2.7-0.7,4
	C206.2,98.5,206,99.2,205.8,100z M203.2,98.5c0.2,0.1,0.4,0.3,0.4,0.3c0.1-0.1,0.3-0.3,0.3-0.4c0,0-0.2-0.3-0.3-0.2
	C203.6,98.1,203.4,98.3,203.2,98.5z M166.9,41c0.1,0.1,0.1,0.1,0.2,0.2c0.1-0.2,0.3-0.3,0.4-0.5c0,0-0.1-0.1-0.1-0.1
	C167.2,40.8,167,40.9,166.9,41z M184,146.7c0-0.1,0-0.2,0-0.3c-0.1,0-0.3-0.1-0.4-0.1c-0.1,0-0.2,0.2-0.6,0.5
	C183.6,146.8,183.8,146.7,184,146.7z M148.2,157c-0.2,0.1-0.2,0.2-0.3,0.3c0.1,0.1,0.2,0.2,0.2,0.2c0.1,0,0.2-0.1,0.2-0.2
	C148.3,157.3,148.2,157.2,148.2,157z M204.5,97.3c-0.1,0-0.2-0.1-0.2-0.1c-0.1,0.2-0.2,0.3-0.2,0.5c0.1,0,0.2,0.1,0.3,0.1
	C204.4,97.6,204.5,97.4,204.5,97.3z M185.4,146.8c0.1-0.1,0.2-0.2,0.3-0.3c-0.1-0.1-0.1-0.2-0.2-0.2c0,0-0.2,0.1-0.2,0.1
	C185.3,146.5,185.4,146.6,185.4,146.8z M177.1,130.5C177.1,130.5,177.1,130.5,177.1,130.5c-0.1,0-0.1,0.1-0.1,0.1
	C177.1,130.6,177.1,130.6,177.1,130.5C177.1,130.6,177.1,130.6,177.1,130.5z M206.9,87.5c0,0.1-0.1,0.1-0.1,0.2c0,0,0,0.1,0.1,0.1
	C206.9,87.7,207,87.7,206.9,87.5C207,87.6,206.9,87.6,206.9,87.5z"/>
<path id="_x2E_svg_170_" fill="#FFFFFF" d="M229.9,108.9c0.2-0.4,0.5-0.8,0.7-1.2c1.3-3.3,2.5-6.6,3.8-9.9c0.3-0.7,0.3-1.3,0.1-2
	c-0.1-0.5-0.1-1.2,0.1-1.7c1.3-4.4,2.8-8.7,3.8-13.1c1.7-7.2,3.9-14.3,6.4-21.2c0.1-0.2,0.1-0.4,0.1-0.7c-1.3,2-1.7,4.4-2.9,6.5
	c0.1-2.6,1.8-7.4,3.2-9c0,0.6-0.1,1.1-0.1,1.6c0.1,0,0.2,0,0.3,0.1c0.2-0.5,0.5-1,0.7-1.5c0.6-2.3,1.2-4.5,1.7-6.8
	c0.5-2.1,1.3-4,2.4-6c-0.1,1-0.1,1.7-0.1,2.4c0.1,0,0.1,0,0.2,0.1c0.1-0.2,0.2-0.4,0.3-0.7c0.5-1.6,1-3.3,1.5-4.9
	c0.1-0.4,0.1-0.8,0.1-1.2c0-2.3,0.8-4.4,1.9-6.4c0-0.1,0.1-0.1,0.4-0.2c0,0.3,0,0.6-0.1,0.8c-0.5,1.3-0.9,2.6-1.4,3.9
	c-0.1,0.3-0.2,0.7-0.1,1c0.4-0.6,0.7-1.2,1.1-1.8c0.1,0,0.2,0.1,0.3,0.1c-0.1,0.9-0.2,1.9-0.3,2.8c0.1,0,0.1,0,0.2,0
	c0.1-0.1,0.1-0.2,0.2-0.3c0.4-1.8,0.8-3.6,1.3-5.4c0.2-0.6,0.4-1.3,0.7-1.9c1-2,2-3.9,3.1-5.9c0.1-0.1,0.1-0.3,0.2-0.4
	c0.5-1,1.2-1.2,2.1-0.6c0.5,0.3,1,0.7,1.5,1.1c1.6-1.4,2.8-3.2,5.3-3.5c-0.4,0.7-0.7,1.2-1,1.7c0.1,0.1,0.1,0.1,0.2,0.2
	c0.4-0.2,0.9-0.5,1.3-0.7c0.6-0.3,1.1-0.6,1.7-0.8c0.9-0.3,1.3,0,1.2,0.9c-0.2,1.5-0.5,2.9-0.7,4.4c-0.2,1.2-0.5,2.3-0.7,3.5
	c-0.3,1.4-0.8,2.7-1.1,4c-0.1,0.3-0.2,0.7,0,1.2c0.5-0.7,0.9-1.4,1.4-2.1c0.1,0,0.1,0,0.2,0c0,0.2,0,0.5,0,0.7
	c-0.3,0.9-0.6,1.9-1,2.8c-1.3,3.2-2.7,6.3-3.9,9.5c-0.6,1.5-0.9,3.1-1.3,4.7c-0.3,1.5-0.8,3-1.9,4.3c0.1-0.5,0.2-1,0.3-1.5
	c0.1-0.5,0.3-1.1,0.5-1.8c-0.8,0.8-2.6,4.9-2.7,6.2c0.3-0.1,0.5-0.2,0.7-0.4c2.2-1.8,4.4-3.6,6.6-5.4c1-0.8,2.1-1.4,3.2-2.1
	c0.4-0.2,0.9-0.3,0.8-0.9c0-0.1,0.2-0.3,0.4-0.4c1.5-1.1,2.9-2.3,4.6-3c0.2-0.1,0.4-0.3,0.6-0.4c1.5-1.2,3.1-2.3,4.6-3.5
	c1-0.7,1.9-1.5,2.9-2.3c0.2-0.2,0.5-0.5,0.7-0.5c1-0.1,1.6-0.8,2.4-1.4c1.1-0.8,2.3-1.5,3.4-2.4c1.3-1,2.6-2.1,4-3.1
	c0.4-0.3,0.9-0.6,1.4-0.8c2-0.8,3.7-2.1,5.5-3.2c2.7-1.7,5.4-3.3,8.1-4.9c0.2-0.1,0.4-0.2,0.6-0.2c-0.3,0.7-0.8,1.2-1.4,1.7
	c-0.6,0.5-1.2,1-1.9,1.6c1,0.4,1.5,0,2-0.4c1.5-1.3,3-2.5,4.5-3.8c1.9-1.7,3.8-3.4,5.7-5.1c0.6-0.5,1.2-1.1,2.1-1.4
	c-0.2,1-1.1,1.1-1.4,1.7c0,0.6,0,1.1,0,1.8c1-0.5,1.9-0.9,2.7-1.3c0,0.1,0.1,0.1,0.1,0.2c-0.1,0.2-0.2,0.5-0.4,0.7
	c-1.3,1.8-2.7,3.4-4.6,4.5c-0.4,0.2-0.8,0.4-0.8,1c0,0.3-0.3,0.6-0.6,0.9c-1.3,1.5-2.7,3-4,4.5c-1.1,1.3-2.1,2.7-3.3,3.9
	c-1.5,1.5-3.3,2.7-4.9,4.1c-0.4,0.3-0.8,0.6-1.2,0.9c-2.1,2.1-4.1,4.3-6.3,6.3c-2.1,1.9-4.1,4-5.8,6.2c-0.2,0.3-0.7,0.5-0.4,1
	c-0.1,0-0.2,0-0.4,0.1c0,0,0,0.1,0.1,0.1c0.1-0.1,0.2-0.2,0.3-0.2c0,0,0.1,0,0.1,0c1.7-1.5,3.5-3,5.2-4.5c1.4-1.3,2.8-2.8,4.2-4.2
	c0.3-0.3,0.6-0.5,1.1-0.7c-0.1,0.4-0.3,0.7-0.4,1.1c0,0,0.1,0.1,0.1,0.1c0.7-0.7,1.4-1.3,2.1-2c0.1,0,0.1,0.1,0.2,0.1
	c-0.3,0.6-0.7,1.1-1,1.7c-0.9,1.5-1.8,3-2.7,4.4c-0.3,0.5-0.8,0.9-1.2,1.2c-0.5,0.4-1.1,0.7-1.6,1.1c-0.5,0.4-0.9,0.7-1.5,0.1
	c-3.1,2.9-5.8,6.1-9.2,8.8c0.1-0.4,0.1-0.5,0.1-0.7c0.1-0.2,0.2-0.3,0.4-0.7c-1.1,0.1-1.4,1.1-2.1,1.3c-0.9,0.2-1.3,1-2,1.5
	c0.3,0.3,0.6,0.5,1,0.9c-2.4,2.8-4.9,5.4-6.9,8.5c0.1,0.1,0.1,0.1,0.2,0.2c0.5-0.3,0.9-0.5,1.6-0.8c0.1,0.8,0.1,1.7,0.9,2.1
	c0.7,0.3,1.3,0.6,2,1.2c-1.1,0.3-2.1,0.6-3.2,0.9c0.1,0.2,0.1,0.5,0.2,0.6c2,2.9,3.6,6.1,5.2,9.3c1.1,2.2,2.2,4.4,3.2,6.6
	c0.2,0.5,0.4,1-0.1,1.5c-0.1,0.2-0.1,0.6,0,0.9c0.3,0.6,0.7,1.2,1.2,1.7c2.5,3.1,4.2,6.6,5.9,10.1c0.3,0.7,0.8,1.4,1.1,2
	c0.3,0.5,0.5,1,0.8,1.7c-0.4-0.1-0.7-0.2-1.2-0.3c0.5,1.3,1,2.5,1.5,3.6c-0.1,0-0.2,0.1-0.2,0.1c-0.6-0.5-0.8-1.2-1.1-1.9
	c-1.9-4.1-3.8-8.2-5.8-12.3c-0.1-0.2-0.2-0.3-0.5-0.4c0,0.3,0,0.5,0.1,0.8c0.3,0.9,0.7,1.9,1.1,2.8c3,6.5,6.4,12.8,9.7,19.1
	c0.9,1.8,2.1,3.5,2.7,5.3c1.1,3.2,3.1,5.9,4.4,8.9c0.5,1.1,1,2.2,1.4,3.4c-2.8-2.4-5.5-4.8-6.9-8.3c-0.6-1.5-1.4-3-2.1-4.4
	c-1.9-3.9-3.7-7.9-5-12.1c-0.6-2-1.3-4-2.4-5.8c-1.1-1.8-2-3.8-3-5.7c-0.3-0.7-0.7-1.3-1.3-1.9c0,0.2-0.1,0.4,0,0.6
	c1.2,3.6,2.4,7.3,3.6,10.9c0.6,1.8,1.3,3.6,1.9,5.3c2.2,5.6,4.9,10.9,7.4,16.3c0.2,0.3,0.3,0.7,0.4,1c0,0.1,0,0.1-0.1,0.4
	c-0.7-0.6-1.4-1.2-2.1-1.7c-0.1,0-0.1,0.1-0.2,0.1c0.6,1.1,1.2,2.1,1.8,3.2c-0.1,0.1-0.1,0.1-0.2,0.2c-0.2-0.1-0.5-0.2-0.7-0.3
	c-0.8-0.9-1.6-1.7-2.4-2.6c-0.3-0.3-0.6-0.6-1-1c-0.2,1.6,1.1,2.5,1.1,4c-2.2-2.1-2.5-5.2-4.5-7.2c-0.1,0-0.2,0.1-0.3,0.1
	c0.1,0.4,0.2,0.7,0.3,1.1c0.7,1.8,1.5,3.6,2.2,5.4c0.2,0.5,0.2,1,0.4,1.5c-0.1,0-0.2,0.1-0.2,0.1c-0.2-0.2-0.5-0.3-0.6-0.5
	c-1.3-2-2.6-3.9-4.3-5.5c-0.3-0.3-0.4-0.7-0.5-1.1c-0.1-0.9-0.5-1.4-1.3-1.7c-0.4-0.1-0.7-0.5-0.9-0.8c-2.5-3.1-5-6.3-7.6-9.4
	c-0.6-0.7-0.1-1,0.4-1.5c-0.3-0.4-0.6-0.7-1-1.1c-0.1,0.4-0.2,0.7-0.3,1c-0.9-0.7-1.5-1.6-1.8-2.6c0.1-0.1,0.1-0.1,0.2-0.2
	c0.4,0.3,0.7,0.7,1.1,1c0-0.8-0.5-1.8-1.3-2.4c-0.2-0.2-0.6-0.2-1.2-0.4c-4.8-7.5-9.7-15.3-14.7-23.2c0.5,0,0.8,0,1.1-0.1
	c0,0.2,0.1,0.3,0.1,0.5c0.1-0.1,0.2-0.1,0.2-0.2c-0.1-0.1-0.3-0.2-0.4-0.3c-0.2-1.1-0.7-1.9-1.6-2.7c-0.9,0.6-1.9,1.1-3,1.8
	c0.3-1.4,2.1-1.9,2.1-3.3c-0.1-0.1-0.2-0.1-0.2-0.2c-1.6,1.6-3.1,3.2-4.9,5c0-0.7,0-1,0-1.5c-1.9,1.7-2.6,4-3.9,6
	c-0.1-0.4-0.2-0.7-0.3-1.1c-0.3,0.8-0.6,1.5-0.8,2.1c-0.7,2.1-1.4,4.3-2.1,6.4c-0.1,0.4-0.1,0.9-0.2,1.3l0,0
	c-0.1,0.1-0.3,0.2-0.4,0.3c0.1,0.1,0.3,0.1,0.4,0.2l0,0c-0.1,0.5-0.1,1.1-0.3,1.6c-1,2.7-2.1,5.4-3.2,8.2c-0.2,0.6-0.6,1.1-1.2,1.5
	c-0.3,0.2-0.6,0.6-0.7,0.9c-2,5.1-4.1,10.1-5.9,15.3c-1.1,2.9-1.8,6-2.7,9c-0.1,0.2,0,0.4,0,0.6c0.5,0.1,0.7-0.1,0.7-0.5
	c0-2,1-3.7,2.1-5.3c0.7-1,1.2-2.2,1.7-3.4c0.7-1.7,1.6-3.2,2.6-4.7c1-1.4,1.6-2.9,2.5-4.4c0.2-0.3,0.4-0.7,0.6-1
	c0.1,0,0.2,0.1,0.2,0.1c0,0.2,0.1,0.4,0,0.6c-0.1,0.4-0.2,0.9-0.4,1.3c-2.6,6.7-5.1,13.4-7.7,20c-0.4,1-0.8,2-1.3,2.9
	c-0.1,0.3-0.4,0.5-0.7,0.9c-0.6-1.7,0-3.5-1.1-4.9c-0.2,0.8-0.4,1.6-0.6,2.4c-0.2,0.9-0.6,1.7-0.2,2.6c0.1,0.1-0.1,0.5-0.2,0.5
	c-0.9,0.3-1.4,1-1.7,2c-0.6-0.7-0.6-1.4-0.6-2c-0.1-1.1-0.2-2.3-0.3-3.4c-0.1-0.4-0.2-0.8-0.5-1.6c-0.3,0.9-0.6,1.4-0.8,2
	c-0.8,0-1.3-0.4-1.6-1c-0.3-0.6-0.4-1.2-0.8-1.8c-0.1,0.7-0.2,1.3-0.3,2c-0.8,0-0.6-0.7-0.8-0.9c-0.4,0-0.9,0.2-1.1,0.1
	c-0.2-0.1-0.3-0.6-0.3-1c0.1-0.9,0.2-1.8,0.3-2.7c0-0.4,0-0.8-0.2-1.2c-0.2,1-0.4,2-0.7,3.2c-0.6-0.6-0.2-1.5-0.7-2.1
	c-2.4,4.5-4.7,9-6.9,13.5c2.2-8,5-15.7,7.6-23.6c0.4,0.1,0.8,0.2,1.2,0.4c0.5-1.2,1-2.4,1.4-3.7c0.5-1.4,0.8-2.9,1.1-4.4
	c0.1-0.3,0-0.8-0.1-1.1c-0.6-1.3-0.3-2.6,0.2-3.8C227.5,114.6,228.7,111.7,229.9,108.9C229.9,108.9,229.9,108.9,229.9,108.9z
	 M276.5,110.4c-0.1-0.2-0.2-0.4-0.4-0.7c-0.1,0.1-0.2,0.1-0.2,0.2C276.1,110.1,276.2,110.3,276.5,110.4c0.1,0.4,0.2,0.8,0.4,1.2
	c0.6,0.9,1.2,1.7,1.7,2.5c1.3,1.9,2.6,3.8,4,5.6c0.2,0.3,0.5,0.6,0.8,0.9c0.1-0.1,0.1-0.1,0.2-0.2c-0.2-0.3-0.4-0.7-0.6-1
	c-2-2.9-4.1-5.8-6.1-8.7C276.8,110.7,276.6,110.5,276.5,110.4z M306.7,29.6c-0.4,0.2-0.8,0.4-1.2,0.7c-3,2.1-5.9,4.3-8.9,6.4
	c-0.2,0.1-0.2,0.3-0.3,0.5c0.6-0.1,1.1-0.3,1.5-0.6c1.7-1.2,3.5-2.5,5.2-3.7c1-0.7,1.9-1.6,3.1-2C306.8,30.6,306.9,30.2,306.7,29.6
	c0.5,0,1.1,0.2,1.4-0.6C307.3,28.6,307.2,29.6,306.7,29.6z M241.4,79.3c-0.2,0.4-0.3,0.8-0.5,1.3c-0.7,2.1-1.4,4.3-2.2,6.4
	c-0.8,2-0.9,4.3-2.2,6.2c-0.1,0.1,0,0.4-0.1,0.6c-0.1,0.6-0.1,1.2-0.3,1.7c-0.6,1.7-0.6,3.6-0.7,5.3c0,0.3,0,0.5,0.1,0.9
	C236.3,100.4,241.1,82.4,241.4,79.3z M266.2,82.9c-0.9,0.6-1.8,1.2-2.3,2.1c-0.2,0.3-0.2,0.9,0,1.1c1.7,2.4,3.5,4.8,5.2,7.2
	c0.1-0.1,0.2-0.1,0.3-0.2c-0.3-0.7-0.5-1.4-0.8-2.1C267.7,88.4,265.7,86.1,266.2,82.9z M268.8,27.3c-0.1,0-0.2-0.1-0.3-0.1
	c-0.3,0.6-0.7,1.2-1,1.7c-0.9,1.4-1.5,2.9-1.5,4.6c0,0.4-0.1,0.8-0.3,1.2c-0.5,1.2-0.3,2.3,0,3.5C266.8,34.6,267.9,31,268.8,27.3z
	 M287.7,59.4c1.5-0.8,2.6-2.1,3.6-3.4C289.6,56.5,288.6,57.9,287.7,59.4z M270.5,29c-0.1,0-0.1-0.1-0.2-0.1c-0.2,0.5-0.4,1-0.7,1.5
	c0.1,0,0.2,0.1,0.3,0.1C270.2,30.1,270.3,29.5,270.5,29z M226.5,119.5c0.1,0,0.2,0,0.2,0.1c0.1-0.3,0.1-0.5,0.2-0.8
	c-0.1,0-0.2,0-0.3-0.1C226.6,119,226.6,119.3,226.5,119.5z M291.9,128.9c0,0-0.1,0.1-0.1,0.1c0.1,0.2,0.3,0.4,0.4,0.6
	c0.1,0,0.1-0.1,0.2-0.1C292.2,129.3,292,129.1,291.9,128.9z M284,121.1c0,0-0.1,0.1-0.1,0.1c0.1,0.1,0.2,0.2,0.3,0.4
	c0,0,0.1-0.1,0.1-0.1C284.2,121.4,284.1,121.2,284,121.1z M250.9,93.3c0,0,0-0.1,0-0.1c0,0-0.1,0.1-0.1,0.1c0,0,0,0.1,0,0.1
	C250.9,93.3,250.9,93.3,250.9,93.3z M294.7,108.7c0-0.1-0.1-0.1-0.1-0.2c0,0-0.1,0.1-0.1,0.1c0,0.1,0,0.1,0.1,0.2
	C294.7,108.8,294.7,108.8,294.7,108.7z M298.3,133.3c-0.1,0-0.1,0.1-0.2,0.1c0,0.1,0.1,0.2,0.1,0.2c0,0,0.1,0,0.2,0
	C298.3,133.4,298.3,133.4,298.3,133.3z M233.2,142.1c0-0.1-0.1-0.2-0.1-0.2c-0.1,0-0.2,0.1-0.2,0.1c0,0,0,0.1,0.1,0.2
	C233.1,142.2,233.1,142.2,233.2,142.1z M262.8,90.8c0,0.1,0,0.1,0.1,0.2c0,0,0.1,0,0.1-0.1c0-0.1,0-0.1,0-0.2
	C262.9,90.8,262.9,90.8,262.8,90.8z M268.6,38.5c0.1,0,0.1-0.1,0.2-0.1c0-0.1,0-0.1,0-0.2c-0.1,0-0.2,0.1-0.2,0.1
	C268.5,38.3,268.5,38.4,268.6,38.5z M263.5,53.5C263.5,53.5,263.5,53.4,263.5,53.5c0-0.1-0.1-0.1-0.1-0.1
	C263.4,53.4,263.4,53.5,263.5,53.5C263.5,53.5,263.5,53.5,263.5,53.5z M320.5,21.6C320.5,21.6,320.5,21.6,320.5,21.6
	c0-0.1-0.1-0.1-0.1-0.1C320.4,21.6,320.5,21.6,320.5,21.6C320.5,21.7,320.5,21.7,320.5,21.6z"/>
<path id="_x2E_svg_169_" fill="#FFFFFF" d="M388.1,71.1c-0.4-0.7-0.8-1.4-1-2.2c-1.2-3.3-2.4-6.6-3.6-9.8c-0.1-0.4-0.3-0.7-0.5-1.1
	l0,0c-0.1-0.3-0.2-0.5-0.3-0.8l0,0c-0.1-0.3-0.2-0.6-0.3-0.9l0,0c-0.2-0.7-0.3-1.4-0.6-2.1c-0.6-1.8-1.3-3.5-1.9-5.3
	c0.6,0,0.7,0.5,0.8,0.9c0.3,0.7,0.5,1.3,0.8,2c0.5-1.5-0.5-2.6-1-4.1c-0.3,0.6-0.5,0.9-0.6,1.3c-0.6,0-0.5-0.4-0.5-0.8
	c0.1-0.7-0.2-0.9-1.1-0.7c0.3-1.3,0.6-2.5,0.8-3.7c-0.1,0-0.2-0.1-0.3-0.1c-0.1,0.2-0.2,0.5-0.2,0.7c-0.2,0.6-0.2,1.2-0.5,1.6
	c-0.5,0.9-0.7,1.8-0.8,2.8c0,0.4-0.3,0.9-0.6,1.2c-0.8,0.7-1.1,1.6-1.4,2.6c-0.2,1-0.3,2-1.1,3c-0.3-0.8,0-1.5,0.2-2.3
	c0.2-0.7,0.4-1.5,0.6-2.2c-0.1,0-0.2-0.1-0.3-0.1c-0.3,0.7-0.6,1.4-0.8,2.2c-0.5,1.8-0.9,3.6-1.3,5.4c-0.1,0.3-0.1,0.7,0,0.9
	c0.6,1.1,0.5,2.3,0.1,3.5c-1.9,6.8-3.6,13.7-5.8,20.4c-2,6.3-3.8,12.8-6.2,19c-0.6,1.5-1.2,3.1-1.8,4.6c-0.1,0.2-0.2,0.4-0.5,0.7
	c-0.2-0.6-0.3-1-0.5-1.4c-0.1,0-0.1,0-0.2,0c-0.5,1.8-1.1,3.6-1.4,5.4c-0.6,2.9-1.4,5.8-2.7,8.6c-1.7-0.2-3,0.8-4.4,1.4
	c-0.3,0.2-0.6,0.4-1,0.6c-0.7,0.4-1.4,0.4-2-0.3c-0.2-0.3-0.6-0.4-0.7-0.6c-0.3-0.7-0.5-1.3-0.8-1.8c-0.5-0.8-0.4-1.6-0.3-2.4
	c0.2-1.1,0.3-2.1,0.3-3.2c-0.1,0.4-0.3,0.7-0.4,1.1c-0.5,1.8-1,3.6-1.5,5.4c-0.1,0.4-0.4,0.8-0.6,1.1l0,0c0.9-4.7,1.8-9.4,2.7-14.1
	c0.1-0.4,0.1-0.8,0.2-1.2c0,0,0,0,0,0c-0.2,0.2-0.5,0.4-0.6,0.7c-1.2,2.4-2.4,4.8-3.7,7.1c-0.2,0.4-0.3,1-0.9,1.2
	c-0.3,0.1-0.5,0.9-0.4,1.3c0.2,0.9-0.2,1.6-0.4,2.4c-1.2,4.6-2.5,9.1-3.7,13.7c-0.1,0.5-0.3,0.9-0.5,1.4c-0.1,0-0.2,0-0.3,0
	c0-0.4-0.1-0.7,0-1.1c0.4-2.1,0.7-4.2,1.3-6.3c1.6-5.6,3.4-11.2,5.1-16.8c1.3-4.1,2.7-8.1,4.1-12.1c0-0.1,0.1-0.1,0.1-0.2l0,0
	c0.5,0.2,0.9,0.5,1.5,0.8c0.5-2.3,1-4.6,1.6-6.8c0,0,0-0.1,0-0.1c0,0,0,0,0-0.1c0,0.1,0,0.1,0,0.2c-0.2,0.3-0.5,0.7-0.7,1.1
	c-0.6,1.2-1.1,2.3-1.6,3.5l0,0c0-0.3,0-0.5,0-0.8l0,0c0.1-0.3,0.2-0.7,0.3-1l0,0c0.2-0.3,0.4-0.6,0.5-1c1.3-4.9,2.7-9.8,4-14.6
	c0.2-0.7,0.6-1.1,1.2-1.3c0.3-2.2,0.5-4.3,1-6.3c1.1-4.5,2.2-8.9,3.4-13.4c0.8-3,1.7-6,2.6-9c1.3-4.4,2.6-8.8,3.9-13.3
	c0.6-1.9,1.2-3.8,1.7-5.7c1.1-3.9,3-7.5,4.5-11.4c0.5,0.6,0.2,1,0,1.5c-0.1,0.4-0.2,0.8,0.5,0.9c-0.7,2.3-1.4,4.5-2.1,6.8
	c-0.4,0-0.7-0.1-1.1-0.1c-2.4,8.7-4.8,17.3-7.2,25.9c-0.1,0.3-0.1,0.6-0.1,1c1.4-3.4,2-7.1,3.5-10.8c0.2,1.2-0.2,2.2,0,3.2
	c0.1,0,0.2,0,0.3,0c0.1-0.4,0.3-0.7,0.4-1.1c1.6-5.4,3.2-10.8,4.8-16.2c1.3-4.2,2.7-8.5,4-12.7c0.4-1.4,1.5-2.2,2.7-3.1
	c0.3,0.5,0.5,0.9,0.7,1.2c0.8,1.7,1.6,3.4,2.4,5c0.5,1.1,1.2,2,2.2,2.8c0.1,0,0.2-0.1,0.3-0.1c-0.2-0.7-0.4-1.5-0.7-2.1
	c-0.7-1.4-1.6-2.7-2.4-4c-0.4-0.7-0.9-1.3-1.1-2.4c0.8,0.7,1.3,1.4,1.8,2.1c1.2,1.9,2.5,3.9,3.7,5.8c0.1,0.2,0.5,0.3,0.8,0.4
	c0.2-0.3,0.5-0.6,0.4-0.9c-0.1-0.8-0.4-1.5-1.1-1.8c-1.1-0.5-1.4-1.4-1.6-2.5c2.3,0.6,3.8,2.3,4.1,4.5c0,0.3,0,0.6,0.2,0.8
	c0.7,1,0.9,2.2,1.2,3.3c0.1,0.3,0.3,0.7,0.6,0.9c0.8,0.7,1.3,1.6,1.6,2.6c0.6,2.3,1.5,4.4,2.6,6.5c0.4,0.7,0.6,1.6,0.7,2.5
	c0.1,0.8,0.4,1.5,0.8,2.2c1.3,2.2,2.7,4.3,3.8,6.6c0.8,1.5,1.2,3.2,1.8,4.9c0.4,1.2,0.8,2.4,1.1,3.6c0,0.2,0.2,0.3,0.2,0.5
	c0.1,2.8,1.3,5.3,2.4,7.8c0.6,1.4,1.1,2.8,1.7,4.2c0.1,0.4,0.3,0.7,0.6,1.1c0.3-1-0.1-2.1,0.7-2.9c1.1,1.2,1.4,3.9,0.5,5
	c0.7,1.9,1.5,3.7,2.2,5.7c0.7-2.6,1.4-5,1.9-7.5c0.5-2.5,0.9-5.1,1.3-7.7c0.4-2.7,0.8-5.4,1.3-8.2c0.1-0.7-0.2-1-0.8-1.2
	c0.7-1.8,1.4-3.5,2-5.3c0.3-0.7,0.6-1.4,0.7-2.1c0.3-1.8,0.5-3.7,0.8-5.5c0.4-2.3,0.8-4.6,1.2-6.9c0-0.2,0.1-0.4-0.1-0.7
	c-0.2,0.4-0.4,0.8-0.5,1.3c-0.5,2.1-1,4.2-1.5,6.4c-1,3.7-1.9,7.4-2.9,11.1c-0.1,0.5-0.3,0.9-0.8,1.4c-0.2-0.5-0.4-0.9-0.5-1.4
	c-0.2-1.2,0-2.3,0.3-3.4c1.4-5.3,3.1-10.4,4.9-15.5c0.2-0.6,0.5-1.3,0.9-1.9c0.1,0.9,1.4,1.2,0.8,2.4c0.1,0,0.3,0,0.4,0
	c0.3-1.8,0.6-3.5,0.8-5.3c0.6,3-0.3,6,0.2,9.3c0.8-0.9,0.9-1.7,0.9-2.4c-0.1-1.1,0.2-2.2,0.4-3.3c0.3-1.1,0.4-2.2,0.6-3.4
	c0-0.1,0-0.3,0.1-0.4c1-1.7,1.4-3.5,1.4-5.4c0-0.7,0-1.3,0.2-2c0.1-0.3-0.2-1.1,0.7-0.8c0,0,0.2-0.3,0.2-0.5
	c0.8-3.7,1.6-7.4,2.4-11.1c0.1-0.4-0.1-1.1,0.7-1c0.6,0.1,0.7,0.6,0.7,1.1c-0.2,1.9-0.5,3.8-0.7,5.7c-0.1,0.6-0.3,1.1,0.1,1.7
	c0.2,0.2,0,0.7,0.2,1c0.6-1.7,1.2-3.4,1.8-5.1c0.3-0.7,0.5-1.4,0.8-2.1c0.4-0.9,0.7-1.8,0.8-2.8c0.1-0.5,0.3-1,0.4-1.4
	c0.6,0.4,1.2,0.8,1.7,1.1c0.7,0.5,1.5,1,2.3,1.6c0.5-0.2,0.6-0.6,0.6-1.1c0.1-0.9,0.6-1.6,1.3-2.2c0.1,0,0.2,0.1,0.3,0.1
	c-0.3,1-0.5,2-0.9,2.9c-0.4,1-0.3,1.7,0.3,2.5c0.6,0.8,1.1,1.7,1.7,2.6c0.9,1.2,0.6,2.4,0.2,4c-1.2-1.4-0.7-3.1-1.7-4.4
	c-0.6,3-1,6-1.7,9c-0.7,3-1.3,6-2.6,8.8c0-3.2,1-6.3,1.3-9.4c-0.1,0-0.1-0.1-0.1-0.1c0,0-0.1,0-0.1,0c-0.1,0.1-0.2,0.3-0.2,0.4
	c-1,4.2-1.9,8.5-2.9,12.7c-0.1,0.6-0.2,1.2-0.1,1.8c0.4-0.8,0.8-1.6,1.2-2.6c0.1,1.1-2.5,11.6-3.5,14.1c-0.1-0.3-0.2-0.5-0.3-0.7
	c-0.1,0-0.1,0-0.2,0c-0.3,1.2-0.6,2.3-0.8,3.5c-0.8,4.7-1.6,9.3-2.5,14c-0.2,1.4-0.6,2.7-0.4,4.1c0.1,0.8,0,1.7-0.2,2.4
	c-0.7,2.7-1.4,5.4-2.1,8.1c-0.4,0-0.6,0-0.9,0c0.2,0.4,0.3,0.7,0.5,1.1c-0.2,0-0.4,0-0.6,0c0,0.1-0.1,0.3-0.1,0.4
	c0.9,0.7,0.5,1.6,0.4,2.4c0,0.3-0.1,0.6-0.3,0.8c-0.3-0.7,0.1-1.4-0.3-2.2c-0.1,0.4-0.3,0.9-0.4,1.3c-1,3.4-1.9,6.8-2.9,10.2
	c-0.3,0.9-0.8,1.7-1.2,2.5c-0.1,0.3-0.3,0.5-0.4,0.8c-0.6,1.5-1.1,3-1.7,4.5c-0.6,1.6-1.1,3.2-0.7,4.9c0,0.1,0,0.2-0.1,0.5
	c-0.4,0-0.8,0-1.2,0l0,0c-0.5-0.1-0.9-0.3-1.4-0.3c-1.5,0-3,0-4.7,0c0.2,0.8,0.3,1.5,0.4,2.2c-0.1,0-0.1,0-0.2,0.1
	c-0.2-0.4-0.4-0.8-0.5-1.2c-2.2-5.4-4.4-10.8-6.6-16.2c-0.6-1.4-1.2-2.7-1.9-4c-0.3-0.5-0.4-1-0.1-1.5c0-0.1,0.1-0.2,0.1-0.2
	c0.9-1.7,0.5-3.2-0.3-4.8c-2.9-6.3-5.7-12.6-8.5-19c-0.2-0.4-0.2-1-0.8-1.1c0.2-0.6-0.1-1-0.4-1.4c-0.2-0.4-0.3-0.8-0.5-1.2
	c-0.1-0.2-0.2-0.3-0.3-0.5c-0.2-1-0.6-1.9-1.3-2.6c-0.5,0.5-0.3,1-0.1,1.5c1,2.6,1.9,5.3,2.9,7.9c0.1,0.3,0.2,0.5,0.4,0.7
	c-0.2-1.1-0.5-2.1-0.7-3.1c-0.4-1.3-0.7-2.7-1.1-4c0.1,0,0.2,0,0.3,0c0.2,0.4,0.3,0.8,0.5,1.2c0.1,0.5,0.2,0.9,0.4,1.4
	c1,3.4,2.1,6.7,2.6,10.2c0.1,0.5,0.3,0.9,0.4,1.4l0,0C388.1,70.7,388.1,70.9,388.1,71.1L388.1,71.1z M354,79.5
	c0.7-0.6,0.5-1.3,0.4-2.1c0.1-0.2,0.3-0.3,0.3-0.5c0.4-2.1,0.7-4.1,1-6.2c0.1-0.7,0.2-1.3,0.2-2c-0.1,0-0.2,0-0.2,0
	c-0.7,2.8-1.5,5.6-2.2,8.3c0.4,0.2,0.9-0.3,0.9,0.4C354.3,78.2,354.1,78.9,354,79.5c-0.1,0-0.1,0.1-0.2,0.1c0,0,0.1,0.1,0.1,0.1
	C354,79.7,354,79.6,354,79.5z M367,80.8c-0.1,0-0.2-0.1-0.3-0.1c-0.4,0.6-0.8,1.2-1.1,1.9c-0.4,0.8-0.7,1.7-1.1,2.5
	c-0.1,0.3-0.3,0.7-0.5,0.8c-0.7,0.2-0.7,0.7-0.8,1.2c-0.7,2.2-1.4,4.5-2.2,6.7c-0.8,2.3-1.7,4.5-2.4,6.7c-1.3,4.3-2.5,8.7-3.8,13
	c0,0.1,0.1,0.2,0.1,0.5c0.2-0.3,0.3-0.5,0.4-0.7c0.5-1.7,1.1-3.4,1.6-5.1c0.3-0.9,0.4-1.9,1-2.6c0.5-0.6,0.7-1.2,0.9-1.9
	c0.4-1.4,0.8-2.9,1.3-4.2c0.8-2,1.7-4,2.4-6.1c1.5-3.9,2.9-7.8,4.3-11.7C366.9,81.5,367,81.1,367,80.8z M402.9,99.8
	c0.1,0,0.2-0.1,0.3-0.1c-0.9-2.3-1.7-4.6-2.6-6.9C400.9,95.3,401.6,97.7,402.9,99.8z M382.1,43.5c-1.1,1.6-1.3,3.1-0.7,4.1
	C381.3,46.1,382.9,45.1,382.1,43.5z M377.8,45c-0.1,0-0.2,0-0.3,0c-0.1,0.6-0.5,1.2,0,1.9C377.5,46.3,377.6,45.6,377.8,45z
	 M403.8,102.6c0.1,0,0.2-0.1,0.3-0.1c-0.1-0.4-0.3-0.7-0.4-1.1c-0.1,0-0.2,0.1-0.3,0.1C403.6,101.9,403.7,102.3,403.8,102.6z
	 M403.3,100.5c-0.1,0-0.1,0.1-0.2,0.1c0.1,0.1,0.1,0.3,0.2,0.4c0.1,0,0.1-0.1,0.2-0.1C403.5,100.7,403.4,100.6,403.3,100.5z
	 M359,56.1c0-0.1,0.1-0.1,0.1-0.2c0,0,0-0.1,0-0.1c0,0-0.1,0-0.1,0.1C359,55.9,359,56,359,56.1z M416.2,34.4
	C416.1,34.4,416.1,34.4,416.2,34.4c-0.1,0-0.1,0-0.1,0.1c0,0,0.1,0,0.1,0.1C416.2,34.5,416.2,34.5,416.2,34.4z M426,44.4
	C426,44.4,426,44.4,426,44.4c-0.1,0-0.1,0.1-0.1,0.1C426,44.5,426,44.5,426,44.4C426.1,44.5,426,44.4,426,44.4z M386,64.2L386,64.2
	L386,64.2L386,64.2z M432,18.9C431.9,18.9,431.9,18.8,432,18.9c-0.1-0.1-0.1-0.1-0.1-0.1C431.8,18.9,431.9,18.9,432,18.9
	C431.9,18.9,431.9,18.9,432,18.9z M417.4,37C417.4,37,417.4,36.9,417.4,37c-0.1,0-0.1,0-0.1,0.1c0,0,0,0.1,0.1,0.1
	C417.4,37.1,417.4,37.1,417.4,37z M404.3,70.9C404.3,70.8,404.3,70.8,404.3,70.9C404.3,70.8,404.3,70.9,404.3,70.9
	C404.3,70.9,404.3,70.9,404.3,70.9z"/>
<path id="_x2E_svg_168_" fill="#FFFFFF" d="M330,105.5c0.1,0,0.2,0,0.3,0l0,0c-0.4,2.2-0.8,4.4-1.3,6.5c-1.2,5.5-2.5,11.1-3.7,16.6
	c0,0.2-0.2,0.3-0.3,0.5l0,0c0.2-1.5,0.4-3.1,0.7-4.6c0.4-2.3,0.9-4.6,1.4-6.9c0.1-0.4,0.1-0.9,0.2-1.3c0-0.4,0.1-0.8,0.1-1.2
	c0.1-0.1,0.2-0.2,0.3-0.4c0,0-0.1,0-0.1-0.1c-0.1,0.2-0.1,0.3-0.2,0.5c0,0.4-0.1,0.8-0.1,1.2c-0.5,0.4-0.4,0.8-0.2,1.3
	c-0.2,0.3-0.4,0.6-0.5,0.9c-1.5,4.9-2.9,9.8-4.3,14.7c0,0.1-0.1,0.3-0.3,0.4c0.4-3.5,2-6.8,1.9-10.7c-0.2,0.5-0.4,0.7-0.5,1
	c-0.4,1.5-0.8,3-1,4.6c-0.4,2.4-1.3,4.5-3.5,5.9c-0.4,0.3-0.7,0.8-1,1.3c-0.2,0.4-0.4,0.9-0.8,1.4c-0.1-0.4-0.3-0.8-0.4-1.4
	c-0.6,0.7,0,2.1-1.6,1.9c0.1,0.4,0.1,0.7,0.2,1c0.2,0.7,0.1,1.4-0.3,2c-0.4,0.6-0.8,1.2-0.5,1.9c0.1,0.1-0.2,0.5-0.3,0.6
	c-0.2,0.1-0.5-0.1-0.8-0.2c-0.1-0.1-0.2-0.3-0.2-0.4c-0.8-2.2-1.6-4.4-2.4-6.6c-0.6-1.5-1.1-2.9-1.7-4.4c-1.5-3.9-3-7.8-4.5-11.7
	c-0.3-0.8-0.7-1.7-1-2.5c-0.2-0.6-0.4-1.1-0.6-1.7c0.1,0,0.2-0.1,0.3-0.1c0.2,0.4,0.5,0.7,0.7,1.1c1.6,3.7,3.2,7.5,4.8,11.2
	c0.4,1,0.7,2,1.1,3c0.8,1.8,1.7,3.6,2.6,5.4c0.1,0.2,0.2,0.3,0.4,0.5c0.2-1.2,0.1-1.6-0.7-2.2c-0.1-0.1-0.3-0.3-0.3-0.5
	c0-0.4,0-0.7,0-1.1c0.1-1.2-0.1-2.4-0.7-3.6c-0.3-0.6-0.3-1.3-0.4-1.9c-0.1-0.9-0.2-1.7-0.8-2.4c-0.2-0.3-0.4-0.8-0.3-1.1
	c0.4-3.3,0.9-6.6,1.4-9.9c0-0.1,0.1-0.3,0.3-0.4c-0.1,1.1-0.1,2.3-0.2,3.4c0,2.5,0,5,0,7.5c0,0.1,0,0.3,0,0.4
	c0.2,0.4,0.5,0.7,0.7,1.1c0.3-0.2,0.8-0.4,1-0.7c0.3-0.4,0.4-1,0.4-1.5c0-2.6-0.1-5.2-0.1-7.8c0-1.2,0.3-2.3,0.5-3.5
	c0.4-2.7,0.7-5.5,1.1-8.2c0.1-0.4,0.1-0.8,0-1.2c-1,1.8-0.6,3.9-1.4,5.8c-1.1-2.2,0.2-10.9,2.1-13.7c-0.1,2.3-0.5,4.5-0.7,6.9
	c0.1-0.2,0.3-0.3,0.3-0.5c0.3-0.9,0.5-1.9,0.7-2.9c0.5-2.2,1-4.3,1.5-6.5c0.4-1.8,0.6-3.5,0.5-5.4c-0.1-1.3,0.1-2.5,0.3-3.8
	c0.2-1.1,0.5-2.1,0.8-3.1c0.1-0.2,0.1-0.6,0.3-0.6c0.8-0.4,0.9-1.1,1.1-1.8c1.7-6.4,3.3-12.7,5-19.1c1.8-6.9,3.9-13.7,6.1-20.4
	c1.4-4.2,2.6-8.5,3.8-12.8c0.9-3.5,1.6-7.1,2.4-10.6c0-0.2,0.1-0.4,0.4-0.6c0.2,0.6,0.4,1.2,0.6,1.9c0.2,0.5,0.6,0.7,1.2,0.6
	c0.4-0.1,0.8,0,1.2-0.1c0.7-1.2,0.7-1.2,2.2-0.9c0.3,0.1,0.6,0.1,1,0.2c1.4,0.4,2,1.1,2.1,2.6c0.1,0.8,0.1,1.5,0.3,2.3
	c0.2-0.8,0.4-1.6,0.6-2.5c0.7,0.4,0.6,1.1,0.7,1.6c0.1,0.6,0.1,1.2,0.3,1.9c0-1.6,1-2.9,1.7-4.2c-0.1,0.5-0.3,1.1-0.4,1.6
	c0.3,0.2,0.5,0.3,0.8,0.4c0.8,0.4,1.1,1.1,0.9,2c-0.3,1.2-0.5,2.5-0.8,3.7c-0.1,0.4-0.1,0.7,0,1.1c0.2-0.5,0.4-0.9,0.6-1.4
	c0.1,0,0.2,0,0.2,0.1c0.1,0.6,0.1,1.2,0.2,1.7c0.1,0,0.1,0,0.2,0.1c0.2-0.5,0.5-1,0.7-1.5c0.3,1.2,0.1,2.4-0.1,3.5
	c-0.2,1.1-0.4,2.2-0.7,3.2c-1.2,3.3-1.7,6.8-2.4,10.2c-1.9,9.7-4.1,19.3-6.5,28.9c-0.1,0.4-0.4,0.8-0.5,1.2l0,0
	c1.8-10.5,4-21,6.3-31.4c0.6-2.4,0.9-4.9,1.4-7.4c0.1-0.7,0.3-1.4,0.6-2.1c0.5-1.3,0.8-2.6,1.2-4c-0.7,0-0.7,0.4-0.8,0.7
	c-1.1,4.2-2.2,8.5-3.4,12.7c-0.6,2.2-1.4,4.3-2,6.5c-0.1,0.4-0.3,0.9-0.4,1.3c-0.2,2.7-1,5.2-1.9,7.7c-0.6,1.5-0.8,3.1-1.2,4.6
	c-0.5,2-0.9,4-1.4,6c-0.9,4.1-2,8.2-2.8,12.3c-1.1,5.7-2.7,11.2-4.3,16.8c-0.5,1.8-1.1,3.5-1.6,5.3c-0.1,0.4-0.3,0.8-0.6,1.2
	c0.1-0.9,0.2-1.8,0.3-2.7l0,0c0.1-0.3,0.3-0.7,0.4-1c0.6-2.3,1.2-4.5,1.8-6.8c0.1-0.3,0.1-0.7,0.1-1c-0.1,0-0.2-0.1-0.3-0.1
	c-0.1,0.2-0.3,0.3-0.4,0.5c-0.4,1.2-0.7,2.4-1.1,3.6c-0.4,1.2-0.9,2.3-1.3,3.4c-0.3,0.9-0.5,1.9-0.5,2.9c0,1.6-0.4,3-1,4.5
	c-1.1,2.8-1.9,5.6-2.8,8.4c-0.7,2.3-1.3,4.6-1.9,6.9c-0.1,0.4-0.1,0.8-0.2,1.2c0.8-0.1,0.8-0.6,0.9-1c0.6-2.3,1.2-4.5,1.9-6.8
	c0.1-0.5,0.2-1,0.7-1.4c0.2-0.2,0.3-0.6,0.4-0.9c0.6-2.1,1.1-4.3,1.7-6.4c0-0.2,0.2-0.4,0.3-0.5l0,0c0,0.2,0.1,0.3,0.1,0.6
	C330,105.8,330,105.6,330,105.5L330,105.5z M338.3,19.4c-0.2,0.5-0.4,1.1-0.5,1.6c-0.2,0.4-0.4,0.7-0.5,1.1
	c-0.3,0.9-0.6,1.9-0.9,2.8c-1.5,4.8-3,9.6-4.5,14.5c-0.2,0.7-0.3,1.4-0.4,2c-0.1,0.5-0.2,0.9-0.3,1.3c-0.3,1-1.1,2.1-0.2,3.3
	c0,0.1,0,0.3,0,0.4c0,0,0.1,0,0.1,0c0-0.1,0-0.3-0.1-0.4c0.2-0.2,0.5-0.4,0.5-0.7c0.5-1.8,1.1-3.6,1.5-5.5c0.9-3.5,1.8-6.9,2.7-10.4
	c0.6-2.4,1.2-4.9,1.9-7.3c0.1-0.4,0.1-0.8,0.2-1.2C337.9,20.5,338.1,20,338.3,19.4c0-0.1,0-0.2,0-0.3
	C338.3,19.2,338.3,19.3,338.3,19.4z M313.6,133.8c-0.2-0.1-0.3-0.1-0.5-0.2c0,0.1,0,0.1,0,0.2C313.3,133.8,313.4,133.8,313.6,133.8
	c-0.1,1.1-0.1,1.2,0.7,1.8c-0.2-2.1,0.2-4.2-0.6-6.3c-0.8,1.5-0.8,1.8-0.4,3.3C313.4,132.9,313.5,133.3,313.6,133.8z M318.6,92
	c0.1-0.4,0.2-0.7,0.3-1.1c0.9-3.3,1.7-6.7,2.6-10c1.7-6.8,3.5-13.7,5.2-20.5c0.2-0.6,0.3-1.3,0.4-2c-0.1,0-0.2,0-0.3-0.1
	C323.9,69.5,320.4,80.5,318.6,92z M346.5,22.8c0.1,0,0.1,0,0.2,0c0-0.3,0.1-0.6,0.1-0.9c0,0-0.1,0-0.1,0
	C346.6,22.2,346.5,22.5,346.5,22.8z M334.6,86.4c-0.1,0-0.1,0-0.2-0.1c0,0.2-0.1,0.3-0.1,0.5c0,0,0.1,0.1,0.2,0.1
	C334.5,86.8,334.6,86.6,334.6,86.4z M329.7,50.9c0.1,0,0.2,0,0.3,0c0-0.2,0-0.4,0-0.7c-0.1,0-0.1,0-0.2,0
	C329.8,50.5,329.7,50.7,329.7,50.9z M333.9,88.4c0.1,0,0.2,0.1,0.3,0.1c0-0.2,0.1-0.5,0.1-0.7c-0.1,0-0.1,0-0.2,0
	C334,88,333.9,88.2,333.9,88.4z M311.6,128.9c0.1,0,0.1,0,0.2-0.1c0-0.1-0.1-0.3-0.1-0.4c-0.1,0-0.2,0.1-0.2,0.1
	C311.5,128.7,311.5,128.8,311.6,128.9z M330.5,49c0-0.1-0.1-0.1-0.1-0.2c0,0.1-0.1,0.1-0.1,0.2c0,0,0,0.1,0,0.1
	C330.4,49.1,330.4,49.1,330.5,49z M334.8,84.3c0.1,0,0.2,0.1,0.3,0.1c0-0.1,0.1-0.2,0.1-0.2c-0.1-0.1-0.2-0.1-0.2-0.2
	C334.9,84.1,334.8,84.2,334.8,84.3z M334.9,85.4c-0.1,0-0.1-0.1-0.2-0.1c0,0-0.1,0.1-0.1,0.1c0,0.1,0.1,0.1,0.1,0.1
	C334.8,85.6,334.8,85.5,334.9,85.4z M333.7,89.6c0.1,0,0.2,0,0.2-0.1c0-0.1,0-0.1,0-0.2c-0.1,0-0.2,0.1-0.3,0.1
	C333.6,89.5,333.7,89.5,333.7,89.6z M312.7,133.1C312.6,133.1,312.6,133.1,312.7,133.1c-0.1,0.1-0.1,0.2-0.1,0.3c0,0,0,0,0.1,0
	C312.7,133.3,312.7,133.2,312.7,133.1z M330.7,47.7c0,0-0.1,0-0.1,0c0,0.1,0,0.3,0,0.4c0,0,0.1,0,0.1,0
	C330.7,47.9,330.7,47.8,330.7,47.7z M319.3,79.9C319.3,80,319.3,80,319.3,79.9C319.3,80,319.3,80,319.3,79.9
	C319.4,80,319.3,80,319.3,79.9z"/>
<path id="_x2E_svg_167_" fill="#FFFFFF" d="M128.6,82.6c1.6-4.8,3.6-9.4,5.8-14c2.2-4.7,4.6-9.3,7.6-13.6c1.9-2.8,3.9-5.5,6.4-7.8
	c1.1-1,2.4-1.8,3.7-2.6c0.3-0.2,0.8-0.2,1.2-0.3c0,0.1,0.1,0.2,0.1,0.2c-0.3,0.3-0.6,0.7-0.8,1c-3.2,3.8-6.5,7.4-9.5,11.3
	c-3.8,5-6.8,10.5-9.6,16.1c-1.4,2.9-2.7,5.9-4.1,8.8C129.1,82.1,129.2,82.6,128.6,82.6L128.6,82.6z"/>
<path id="_x2E_svg_166_" fill="#FFFFFF" d="M234.9,81c0.9-3.6,1.7-7.3,2.6-10.9c1-4.1,2.1-8.1,3.2-12.2c0.3-1.2,0.4-2.4,0.6-3.6
	c0.1-0.4,0.1-0.7,0.3-1c1.4-2,2.8-4,4.3-6c0.1-0.1,0.2-0.1,0.5-0.4c-0.2,0.7-0.3,1.2-0.5,1.6c-3.2,9.5-6.4,19.1-9.6,28.6
	c-0.3,1-0.6,2-0.9,2.9C235.3,80.3,235,80.6,234.9,81L234.9,81z"/>
<path id="_x2E_svg_165_" fill="#FFFFFF" d="M427.5,50.6c-0.7,1.8-1.4,3.5-2.1,5.3c0,0-0.1,0-0.2,0c0-1.6,4.9-15.3,6.1-16.9
	c0,0.3,0.1,0.5,0,0.6c-1,5.1-2,10.1-3,15.2c-0.1,0.6-0.1,1.3-0.1,1.9c0,0.2,0.1,0.3,0,0.5c-0.4,2.2-1.1,4.3-2,6.3
	c0,0.1-0.2,0.2-0.3,0.3c0.2-2.3,0.4-4.5,0.7-6.7C426.9,55,427.3,52.8,427.5,50.6C427.6,50.6,427.5,50.6,427.5,50.6z"/>
<path id="_x2E_svg_164_" fill="#FFFFFF" d="M367.7,113.8c-0.3-3.9,0.9-7.7,1.2-11.6c-0.1,0-0.2-0.1-0.2-0.1c-0.4,0.5-0.8,1-1.2,1.5
	c-0.1-0.1-0.2-0.1-0.4-0.2c0.3-1.4,0.6-2.8,0.9-4.2c0.2-1,0.8-2,0.6-3c-0.3-1.4,0.3-2.4,0.6-3.6c0.3-1.2,0.7-2.4,1.1-3.7
	c0.6-1.9,1.2-3.8,1.9-5.6c-0.1,1.1-0.3,2.3-0.4,3.4c-0.6,4.1-1.1,8.1-2.4,12.1c-0.1,0.4-0.1,0.8-0.1,1.2c-0.1,1.7-0.1,3.4-0.2,5.2
	c0,0.3-0.1,0.6,0,0.9C369.4,108.7,368.5,111.2,367.7,113.8z"/>
<path id="_x2E_svg_163_" fill="#FFFFFF" d="M463.9,73.1c-0.8,0.8-1.5,1.6-2.4,2.3c-2.3,1.7-4.5,3.5-7.1,4.6
	c-1.4,0.6-2.8,1.5-4.2,2.2c-0.6,0.3-0.9,0.3-1.6-0.2c0.2-0.8,0.7-1.3,1.3-1.8c0.5-0.4,1.1-0.8,1.6-1.2c0.8-0.6,1.6-1,2.5-1.2
	c1.4-0.2,2.6-0.8,3.8-1.7c1.8-1.4,3.8-2.4,5.8-3.3C463.7,72.9,463.8,73,463.9,73.1z"/>
<path id="_x2E_svg_162_" fill="#FFFFFF" d="M12.7,134.5c-1.2,10.2-2.5,20.5-3.7,30.7c-0.1,0-0.2,0-0.3,0c0-1-0.1-2,0-3.1
	c0.5-5.3,1-10.6,1.7-15.8c0.5-3.7,1.3-7.4,1.9-11.1C12.4,135,12.6,134.8,12.7,134.5L12.7,134.5z"/>
<path id="_x2E_svg_161_" fill="#FFFFFF" d="M248.8,43.5c0.1-0.5,0.2-1,0.4-1.4c2.4-6.6,4.8-13.1,7.2-19.7c0.1-0.3,0.3-0.7,0.3-1.1
	c0.1-1.1,0.8-1.8,2-2.5c-0.3,0.8-0.4,1.4-0.6,2c-1.3,3.4-2.7,6.9-4.1,10.3c-1.5,3.8-3.1,7.5-4.6,11.3
	C249.2,42.8,248.9,43.1,248.8,43.5L248.8,43.5z"/>
<path id="_x2E_svg_160_" fill="#FFFFFF" d="M315.8,35c0.4-0.8,0.7-1.6,1.1-2.3c1.7-2.7,3.3-5.4,5-8c0.4-0.6,0.9-0.6,1.7-0.1
	c0.6,0.5,0.7,0.8,0.2,1.3c-2.5,3-5.1,5.9-7.6,8.9c-0.1,0.1-0.2,0.2-0.3,0.3C315.9,35.1,315.8,35.1,315.8,35z"/>
<path id="_x2E_svg_159_" fill="#FFFFFF" d="M338.2,131.3c0.9-3.9,1.8-7.7,2.7-11.7c0.7,0.8,1,1.5,1,2.3c-0.1,1.5-0.1,3-0.2,4.5
	c0,0.3-0.2,0.7-0.4,1c-0.8,1.2-1.7,2.3-2.6,3.4C338.6,131,338.5,131.1,338.2,131.3z"/>
<path id="_x2E_svg_158_" fill="#FFFFFF" d="M77.8,180c0.1,2,0.3,3.9,0.4,5.9c0,0.3-0.1,0.6-0.2,0.8c-1.1,1.9-2.1,3.8-3.4,5.6
	c0.1-0.4,0.1-0.7,0.2-1.1c0.8-3.3,1.7-6.5,2.5-9.8c0.1-0.5,0.2-1,0.4-1.5C77.7,180,77.7,180,77.8,180z"/>
<path id="_x2E_svg_157_" fill="#FFFFFF" d="M429.2,92.6c1.4,0.9,1.4,1.1,0.8,2.4c1.1,0.4,1.2,1.3,1.4,2.3c-0.6,0.1-1-0.3-1.3-0.6
	c-1.7-1.5-2.8-3.4-3.1-5.7c-0.1-0.6-0.1-1.2-0.2-1.9c0.5,0.3,2.4,2.3,2.5,2.8C429.5,92.1,429.3,92.3,429.2,92.6z"/>
<path id="_x2E_svg_156_" fill="#FFFFFF" d="M23.5,183.3c-0.3,1.8-0.7,3.6-1,5.4c-0.2,1.1-0.4,2.2-0.6,3.3c-0.2,1-0.2,1-1.3,1.2
	c-0.4,0-0.8,0-1.4,0c1.3-3.4,2.7-6.7,4.1-9.9C23.3,183.3,23.4,183.3,23.5,183.3z"/>
<path id="_x2E_svg_155_" fill="#FFFFFF" d="M492.6,26.1c1.2-2.9,2.4-5.7,3.5-8.5c0.3,0.9,0.4,1.9,0.2,2.8c-0.3,1.4-0.7,2.9-1.1,4.3
	C494.7,26,494.3,26.2,492.6,26.1z"/>
<path id="_x2E_svg_154_" fill="#FFFFFF" d="M229.9,108.9C229.9,108.9,229.9,108.9,229.9,108.9c-0.1-0.2-0.4-0.4-0.4-0.6
	c0-0.8,0-1.6,0.1-2.3c0.7-5.9,1.9-11.8,3.4-17.5c0.1-0.4,0.4-0.9,0.6-1.3l0,0c-1.1,6-2.1,12-3.2,18
	C230.2,106.4,230.1,107.6,229.9,108.9z"/>
<path id="_x2E_svg_153_" fill="#FFFFFF" d="M347.1,127.2c0-0.2,0-0.4,0-0.6c-0.1-2.4,0.3-3,2.6-3.8c0.9-0.3,1.9-0.6,3-1
	C352.2,123.3,348.6,126.7,347.1,127.2z"/>
<path id="_x2E_svg_152_" fill="#FFFFFF" d="M315.7,15.8c-0.1,0.2-0.3,0.4-0.5,0.5c-5.4,3.9-10.9,7.7-16.3,11.6
	c-0.3,0.2-0.6,0.4-0.9,0.6c0,0-0.1-0.1-0.1-0.1c0.2-0.2,0.4-0.4,0.6-0.6c5.3-4.1,10.8-8,16.5-11.6C315.2,16,315.5,15.9,315.7,15.8
	L315.7,15.8z"/>
<path id="_x2E_svg_151_" fill="#FFFFFF" d="M110.5,36.9c-1.8,3-3.5,5.8-5.2,8.6c-0.1,0-0.2-0.1-0.2-0.1c0.1-0.2,0.1-0.5,0.2-0.7
	c0.7-1.8,1.4-3.6,2.1-5.4c0.2-0.5,0.4-0.9,0.7-1.3C108.7,36.9,108.7,36.9,110.5,36.9z"/>
<path id="_x2E_svg_150_" fill="#FFFFFF" d="M476.5,40.3c1.5,1,3.1,1.8,4.5,2.9c2.2,1.7,3.8,4,4.7,6.8c-0.1-0.1-0.3-0.3-0.4-0.4
	c-2.5-3.2-5.2-6.1-8.3-8.7C476.8,40.7,476.7,40.4,476.5,40.3L476.5,40.3z"/>
<path id="_x2E_svg_149_" fill="#FFFFFF" d="M467.8,89.5c0.2-0.2,0.3-0.5,0.5-0.6c1.1-0.9,2.2-1.8,3.5-2.8c-0.1,0.5-0.1,0.9-0.2,1.4
	c2.3-0.9,3.5-2.9,5.3-4.4c-0.3,1.1-2,3.6-2.8,4c-1.2,0.6-2.4,1.1-3.7,1.7c-0.3,0.1-0.6,0.3-0.9,0.4c-0.5,0.2-1.1,0.5-1.6,0.7
	C467.9,89.7,467.8,89.6,467.8,89.5z"/>
<path id="_x2E_svg_148_" fill="#FFFFFF" d="M421.5,75.3c0.7-2.8,1.3-5.4,1.9-8.1c0.6,0.9,0.6,3.8,0,5.8
	C423.2,73.9,423,74.9,421.5,75.3z"/>
<path id="_x2E_svg_147_" fill="#FFFFFF" d="M121.5,148.6c-0.7-1.7-0.9-3.4-1.1-5.2c-0.1-1.1-0.1-2.1-0.1-3.2c0-0.5,0.1-1,0.6-1.5
	c0.3,3.4,0.6,6.6,0.9,9.9C121.6,148.6,121.5,148.6,121.5,148.6z"/>
<path id="_x2E_svg_146_" fill="#FFFFFF" d="M388.3,70.4c0.4,1,0.9,1.9,1.3,2.9c0.1,0.3,0.4,0.5-0.1,0.8c-0.1,0.1,0,0.7,0.2,1
	c1.2,3.7,2.5,7.3,3.7,11c0.1,0.4,0.2,0.8,0.2,1.2c-0.1-0.3-0.3-0.5-0.4-0.8c-1.4-4.3-2.9-8.6-4.3-12.9c-0.1-0.4-0.1-0.8-0.2-1.2
	c0-0.5-0.2-1-0.6-1.4c0,0,0,0,0,0C388.2,70.9,388.3,70.6,388.3,70.4L388.3,70.4z"/>
<path id="_x2E_svg_145_" fill="#FFFFFF" d="M153.6,44.3c1.7-1.9,3.5-3.7,5.4-5.2c0.1,0.1,0.2,0.1,0.3,0.2c-0.1,0.3-0.1,0.6-0.3,0.8
	c-1.2,1.4-2.5,2.7-3.7,4.1C154.7,44.7,154.3,44.6,153.6,44.3z"/>
<path id="_x2E_svg_144_" fill="#FFFFFF" d="M478.8,86.3c0.9-2,2.4-3.5,3.8-5.3C482.9,83.1,481.2,85.5,478.8,86.3z"/>
<path id="_x2E_svg_143_" fill="#FFFFFF" d="M249.7,102.1c0.3-2.5-0.1-4.9,2.3-6.6C252,97.2,250.7,100.9,249.7,102.1z"/>
<path id="_x2E_svg_142_" fill="#FFFFFF" d="M189.7,29.9c-0.2,0.2-0.3,0.5-0.6,0.6c-2.3,1.2-4.7,2.4-7,3.5c-0.2,0.1-0.4,0.1-0.6,0
	c0.2-0.2,0.4-0.4,0.6-0.5c2.2-1.5,4.6-2.6,7.1-3.5C189.4,29.9,189.6,29.9,189.7,29.9L189.7,29.9z"/>
<path id="_x2E_svg_141_" fill="#FFFFFF" d="M96.8,193.4c0.4-2.5,0.7-5,1.1-7.6c0.2-1.5,0.4-3,0.7-4.5c0.2-1.5,0.4-2.9,0.8-4.4
	c-0.1,1.2-0.1,2.3-0.3,3.5c-0.5,3.7-1.1,7.4-1.7,11.1C97.2,192.1,97,192.7,96.8,193.4L96.8,193.4z"/>
<path id="_x2E_svg_140_" fill="#FFFFFF" d="M420,17c0.3,2.8-0.1,5.4-0.5,8.2C418.7,24.3,419,19.8,420,17z"/>
<path id="_x2E_svg_139_" fill="#FFFFFF" d="M441,94.3c-0.8,0.1-1.9-0.7-2.3,0.7c-1.2,0-1.6-0.8-2.1-1.6
	C438.1,92.8,439.9,93.2,441,94.3z"/>
<path id="_x2E_svg_138_" fill="#FFFFFF" d="M438,18.7c-0.5-1.7,0-3.4,0.3-5.1c1,0.7,1.2,1.1,1,1.9C438.9,16.6,438.4,17.6,438,18.7z"
	/>
<path id="_x2E_svg_137_" fill="#FFFFFF" d="M332.4,28.3c-0.9,2.7-1.9,5.5-2.8,8.2c-0.2,0.7-0.5,1.4-0.8,2.1
	c-0.1,0.2-0.4,0.3-0.6,0.5l0,0c0.9-2.6,1.9-5.3,2.8-7.9c0.3-0.8,0.5-1.5,0.9-2.3C332,28.7,332.2,28.5,332.4,28.3
	C332.4,28.3,332.4,28.3,332.4,28.3z"/>
<path id="_x2E_svg_136_" fill="#FFFFFF" d="M60.4,120.9c0-0.1,0-0.2,0-0.2c1.8-1.2,3.9-1.6,6-1.8c0.2,0,0.4,0.1,0.6,0.4
	C64.8,119.8,62.6,120.3,60.4,120.9L60.4,120.9z"/>
<path id="_x2E_svg_135_" fill="#FFFFFF" d="M121.7,61.4c0.3-1,0.6-2,0.8-3c0.2-0.7,0.1-1.4,0.3-2.1c0.2-0.7,0.5-1.3,0.9-2.3
	c0.2,0.5,0.3,0.7,0.4,0.9c0,0.2-0.1,0.5-0.2,0.7c-0.6,1.8-1.3,3.5-1.9,5.3C122,61.1,121.8,61.2,121.7,61.4L121.7,61.4z M123.1,56
	L123.1,56L123.1,56L123.1,56z"/>
<path id="_x2E_svg_134_" fill="#FFFFFF" d="M242.9,120.8c0.3-2.3,1.4-4.3,2.5-6.3c0.1,0.7,0.1,0.8-0.5,2.1c-0.3,0.7-0.7,1.5-1,2.2
	C243.6,119.5,243.2,120.1,242.9,120.8z"/>
<path id="_x2E_svg_133_" fill="#FFFFFF" d="M409.6,105c-1.7,1.1-3.2,1.2-4.7,0.1c0.9-0.1,1.6-0.1,2.4-0.1
	C408.1,105,408.8,105,409.6,105C409.6,105,409.6,105,409.6,105z"/>
<path id="_x2E_svg_132_" fill="#FFFFFF" d="M409.1,56.8c-0.3-1.5,0.1-2.7,1-3.7c0.1,0.3,0.2,0.5,0.2,0.7
	C409.9,54.7,409.5,55.7,409.1,56.8z"/>
<path id="_x2E_svg_131_" fill="#FFFFFF" d="M345.6,97.8c-0.1-0.2-0.3-0.4-0.2-0.5c0.3-1.2,0.6-2.4,0.9-3.6c0.1,0,0.2,0,0.2,0
	c0,0.3,0,0.6,0,0.9l0,0c-0.1,0.3-0.2,0.7-0.3,1l0,0c-0.3,0.3-0.3,0.5,0,0.8c0,0,0,0,0,0c-0.1,0.3-0.2,0.5-0.3,0.8
	c0-0.1-0.1-0.1-0.1-0.2c0,0.1,0.1,0.1,0.1,0.2C345.9,97.3,345.8,97.6,345.6,97.8L345.6,97.8z"/>
<path id="_x2E_svg_130_" fill="#FFFFFF" d="M446.3,81.1c1.2-0.5,1.4-0.4,1.7,0.8C447.2,81.9,447.2,81.9,446.3,81.1z"/>
<path id="_x2E_svg_129_" fill="#FFFFFF" d="M294.6,30.7c-0.4,1.2-1.3,1.5-2.4,1.5C293,31.7,293.8,31.2,294.6,30.7z"/>
<path id="_x2E_svg_128_" fill="#FFFFFF" d="M372.5,74.1c-0.3,0.8-0.6,1.6-1,2.5C371.1,75.7,371.4,74.9,372.5,74.1z"/>
<path id="_x2E_svg_127_" fill="#FFFFFF" d="M139.6,65.7c0.1-1,0.5-1.8,1.2-2.5c0,0,0,0,0,0C140.4,64.1,140,64.9,139.6,65.7
	L139.6,65.7z"/>
<path id="_x2E_svg_126_" fill="#FFFFFF" d="M474.9,39.4c-0.4-0.2-0.8-0.3-1.1-0.5c-0.2-0.1-0.2-0.4-0.2-0.6
	C474.2,38.5,474.8,38.7,474.9,39.4L474.9,39.4z"/>
<path id="_x2E_svg_125_" fill="#FFFFFF" d="M117.5,94.2c0,0.5,0,1,0,1.5c0,0,0,0-0.1,0C117.4,95.2,117.4,94.7,117.5,94.2
	C117.5,94.2,117.5,94.2,117.5,94.2z"/>
<path id="_x2E_svg_124_" fill="#FFFFFF" d="M487.7,14.6c-0.4-0.4-0.8-0.8-1.2-1.1c0.1,0,0.1-0.1,0.2-0.1
	C487,13.7,487.3,14.1,487.7,14.6L487.7,14.6z"/>
<path id="_x2E_svg_123_" fill="#FFFFFF" d="M432.5,96c-0.4-0.1-0.9-0.2-0.9-0.8C432.3,95.1,432.3,95.6,432.5,96z"/>
<path id="_x2E_svg_122_" fill="#FFFFFF" d="M390,80.9c0.7,0.4,0.8,1.1,0.8,1.8l0,0C390.5,82.1,390.2,81.5,390,80.9L390,80.9z"/>
<path id="_x2E_svg_121_" fill="#FFFFFF" d="M117.7,91c0,0.5,0,1,0,1.4c0,0-0.1,0-0.1,0C117.7,91.9,117.7,91.5,117.7,91
	C117.7,91,117.7,91,117.7,91z"/>
<path id="_x2E_svg_120_" fill="#FFFFFF" d="M384.7,64.4c-0.2-0.6-0.4-1.1-0.5-1.7l0,0C384.3,63.3,384.5,63.9,384.7,64.4
	C384.6,64.4,384.7,64.4,384.7,64.4z"/>
<path id="_x2E_svg_119_" fill="#FFFFFF" d="M296.5,111.1c0.2,0.3,0.3,0.5,0.5,0.8c-0.1,0-0.2,0.1-0.3,0.1c-0.1-0.3-0.2-0.6-0.3-0.8
	C296.4,111.2,296.5,111.1,296.5,111.1z"/>
<path id="_x2E_svg_118_" fill="#FFFFFF" d="M29.2,52.2c0-0.4,0-0.8-0.1-1.1c0.1,0,0.1,0,0.2,0C29.3,51.5,29.3,51.8,29.2,52.2
	C29.2,52.2,29.2,52.2,29.2,52.2z"/>
<path id="_x2E_svg_117_" fill="#FFFFFF" d="M125.2,38.2c0.1-0.4,0.3-0.8,0.4-1.2l0,0C125.5,37.4,125.3,37.8,125.2,38.2
	C125.2,38.2,125.2,38.2,125.2,38.2z"/>
<path id="_x2E_svg_116_" fill="#FFFFFF" d="M390.8,82.8c0.2,0.3,0.3,0.5,0.5,0.8c-0.1,0-0.2,0.1-0.3,0.1
	C391,83.3,390.9,83,390.8,82.8C390.8,82.7,390.8,82.8,390.8,82.8z"/>
<path id="_x2E_svg_115_" fill="#FFFFFF" d="M120.9,137.6c0-0.2,0-0.3,0-0.5C120.9,137.3,120.9,137.4,120.9,137.6z"/>
<path id="_x2E_svg_114_" fill="#FFFFFF" d="M152.6,49.1c0.1-0.3,0.3-0.5,0.4-0.8c0.1,0.1,0.1,0.1,0.2,0.2
	C153.1,48.7,152.9,48.9,152.6,49.1L152.6,49.1z"/>
<path id="_x2E_svg_113_" fill="#FFFFFF" d="M125.1,39.9c-0.2,0.4-0.3,0.8-0.5,1.2l0,0C124.9,40.8,124.5,40.2,125.1,39.9L125.1,39.9z
	"/>
<path id="_x2E_svg_112_" fill="#FFFFFF" d="M125.1,39.9c0-0.6,0-1.1,0.1-1.7c0,0,0,0,0,0C125.1,38.8,125.1,39.3,125.1,39.9
	C125.1,39.9,125.1,39.9,125.1,39.9z"/>
<path id="_x2E_svg_111_" fill="#FFFFFF" d="M124.7,41.1c0,0.4,0.1,0.7,0.1,1.1c-0.1,0-0.1,0-0.2,0C124.6,41.8,124.6,41.5,124.7,41.1
	C124.7,41.2,124.7,41.1,124.7,41.1z"/>
<path id="_x2E_svg_110_" fill="#FFFFFF" d="M325.1,129.2c0,0.5,0.2,1-0.3,1.4l0,0C324.9,130.1,325,129.6,325.1,129.2
	C325.1,129.2,325.1,129.2,325.1,129.2z"/>
<path id="_x2E_svg_109_" fill="#FFFFFF" d="M324.7,130.5c0,0.4,0.1,0.7,0.1,1.1c-0.1,0-0.1,0-0.2,0
	C324.7,131.2,324.7,130.9,324.7,130.5C324.7,130.5,324.7,130.5,324.7,130.5z"/>
<path id="_x2E_svg_108_" fill="#FFFFFF" d="M58.9,120.2c-0.3,0.2-0.6,0.3-0.9,0.5l0,0C58.3,120.5,58.6,120.4,58.9,120.2L58.9,120.2z
	"/>
<path id="_x2E_svg_107_" fill="#FFFFFF" d="M436.6,17.4c-0.1-0.2-0.1-0.3-0.2-0.5c0.1,0,0.1,0,0.2-0.1c0,0.2,0.1,0.3,0.1,0.5
	C436.7,17.4,436.6,17.4,436.6,17.4z"/>
<path id="_x2E_svg_106_" fill="#FFFFFF" d="M124.4,43.4c0,0.1,0,0.2,0,0.4c0,0,0,0-0.1,0C124.3,43.7,124.3,43.5,124.4,43.4
	C124.4,43.4,124.4,43.4,124.4,43.4z"/>
<path id="_x2E_svg_105_" fill="#FFFFFF" d="M125.6,37c0-0.3-0.1-0.6-0.1-0.8c0,0,0.1,0,0.1,0C125.6,36.4,125.6,36.7,125.6,37
	C125.6,37,125.6,37,125.6,37z"/>
<path id="_x2E_svg_104_" fill="#FFFFFF" d="M58,120.7c-0.5,0-1,0-1.5,0c0,0,0,0,0,0C57,120.7,57.5,120.7,58,120.7
	C58,120.7,58,120.7,58,120.7z"/>
<path id="_x2E_svg_103_" fill="#FFFFFF" d="M79.4,167.1c0,0.3,0,0.5,0.1,0.8c0,0-0.1,0-0.1,0C79.4,167.7,79.4,167.4,79.4,167.1
	C79.5,167.1,79.4,167.1,79.4,167.1z"/>
<path id="_x2E_svg_102_" fill="#FFFFFF" d="M487.6,14.6c0.2,0.2,0.3,0.4,0.5,0.6c-0.1,0-0.2,0.1-0.2,0.1
	C487.8,15,487.7,14.8,487.6,14.6C487.7,14.6,487.6,14.6,487.6,14.6z"/>
<path id="_x2E_svg_101_" fill="#FFFFFF" d="M234.8,80.9c0,0.2,0,0.4,0,0.6c-0.1,0-0.1,0-0.2,0C234.8,81.3,234.8,81.2,234.8,80.9
	C234.9,81,234.8,80.9,234.8,80.9z"/>
<path id="_x2E_svg_100_" fill="#FFFFFF" d="M88.5,121.1c0-0.2,0-0.4,0-0.6c0.1,0,0.1,0,0.2,0C88.6,120.7,88.5,120.9,88.5,121.1
	C88.5,121.1,88.5,121.1,88.5,121.1z"/>
<path id="_x2E_svg_99_" fill="#FFFFFF" d="M460.4,50c-0.1,0-0.2,0-0.2,0c0,0,0,0-0.1-0.1C460.2,50,460.3,50,460.4,50
	C460.4,50,460.4,50,460.4,50z"/>
<path id="_x2E_svg_98_" fill="#FFFFFF" d="M58.9,120.2c0.2,0,0.4-0.1,0.7-0.1c0,0,0,0.1,0,0.1C59.3,120.2,59.1,120.2,58.9,120.2
	C58.9,120.2,58.9,120.2,58.9,120.2z"/>
<path id="_x2E_svg_97_" fill="#FFFFFF" d="M68.9,118.5c-0.2,0-0.3,0-0.4,0c0.1,0,0.1-0.1,0.2-0.1C68.7,118.4,68.8,118.4,68.9,118.5z
	"/>
<path id="_x2E_svg_96_" fill="#FFFFFF" d="M485.8,47.3c-0.1,0-0.3-0.1-0.4-0.1c0,0,0-0.1,0-0.1C485.5,47.1,485.7,47.2,485.8,47.3
	L485.8,47.3z"/>
<path id="_x2E_svg_95_" fill="#FFFFFF" d="M316.4,15.2c0,0.5-0.3,0.6-0.7,0.6c0,0,0,0,0,0C315.9,15.6,316.2,15.5,316.4,15.2
	L316.4,15.2z"/>
<path id="_x2E_svg_94_" fill="#FFFFFF" d="M330.4,103.4c-0.1,0.2-0.1,0.3-0.2,0.5c0,0-0.1,0-0.1-0.1
	C330.2,103.7,330.3,103.6,330.4,103.4L330.4,103.4z"/>
<path id="_x2E_svg_93_" fill="#FFFFFF" d="M330.4,103.4c0-0.2,0-0.4,0-0.6c0,0,0,0,0.1,0C330.4,103,330.4,103.2,330.4,103.4
	C330.4,103.4,330.4,103.4,330.4,103.4z"/>
<path id="_x2E_svg_92_" fill="#FFFFFF" d="M329.8,105.5c0-0.2,0-0.5,0-0.7c0,0,0.1,0,0.1,0c0,0.2,0,0.5,0,0.7l0,0
	C330,105.5,329.9,105.5,329.8,105.5L329.8,105.5z"/>
<path id="_x2E_svg_91_" fill="#FFFFFF" d="M476.5,40.3c-0.2-0.1-0.3-0.1-0.5-0.2c0-0.1,0.1-0.1,0.1-0.2
	C476.3,40,476.4,40.2,476.5,40.3L476.5,40.3z"/>
<path id="_x2E_svg_90_" fill="#FFFFFF" d="M145.4,55.7c-0.2,0.2-0.4,0.4-0.6,0.6c0,0,0,0,0,0C144.8,56,144.9,55.7,145.4,55.7
	L145.4,55.7z"/>
<path id="_x2E_svg_89_" fill="#FFFFFF" d="M96.8,193.4c0,0.2,0,0.4,0,0.7c0,0-0.1,0-0.1,0C96.7,193.8,96.7,193.6,96.8,193.4
	C96.8,193.4,96.8,193.4,96.8,193.4z"/>
<path id="_x2E_svg_88_" fill="#FFFFFF" d="M298,28.5c-0.2,0.1-0.4,0.3-0.5,0.4c0-0.1-0.1-0.1-0.1-0.2c0.2-0.1,0.4-0.3,0.5-0.4
	C297.9,28.4,297.9,28.4,298,28.5z"/>
<path id="_x2E_svg_87_" fill="#FFFFFF" d="M383.5,60.4c-0.1-0.3-0.2-0.6-0.3-0.9l0,0C383.2,59.9,383.3,60.2,383.5,60.4
	C383.4,60.5,383.5,60.4,383.5,60.4z"/>
<path id="_x2E_svg_86_" fill="#FFFFFF" d="M95.1,171.7c0,0.1-0.1,0.1-0.1,0.2C95.1,171.8,95.1,171.7,95.1,171.7
	C95.1,171.7,95.1,171.7,95.1,171.7z"/>
<path id="_x2E_svg_85_" fill="#FFFFFF" d="M67.3,118.8c0,0-0.1,0-0.1,0c0,0,0.1-0.1,0.1-0.1C67.4,118.7,67.4,118.7,67.3,118.8
	C67.4,118.8,67.4,118.8,67.3,118.8z"/>
<path id="_x2E_svg_84_" fill="#FFFFFF" d="M337.4,13.5c0.1-0.2,0.3-0.3,0.4-0.5l0,0C337.6,13.1,337.5,13.3,337.4,13.5L337.4,13.5z"
	/>
<path id="_x2E_svg_83_" fill="#FFFFFF" d="M330.3,105.5c0-0.1,0-0.3,0-0.4c0,0,0.1,0,0.1,0C330.4,105.3,330.4,105.4,330.3,105.5
	C330.3,105.5,330.3,105.5,330.3,105.5z"/>
<path id="_x2E_svg_82_" fill="#FFFFFF" d="M338.1,11.2c0.1-0.1,0.1-0.2,0.2-0.2C338.2,11,338.2,11.1,338.1,11.2
	C338.1,11.2,338.1,11.2,338.1,11.2L338.1,11.2z"/>
<path id="_x2E_svg_81_" fill="#FFFFFF" d="M330.7,101.7C330.7,101.7,330.7,101.7,330.7,101.7C330.7,101.7,330.6,101.7,330.7,101.7
	C330.6,101.6,330.7,101.6,330.7,101.7C330.7,101.6,330.7,101.6,330.7,101.7z"/>
<path id="_x2E_svg_80_" fill="#FFFFFF" d="M338.1,11.2c0.1,0.3,0.2,0.6-0.2,0.8c0,0,0,0,0,0C337.9,11.8,338,11.5,338.1,11.2
	C338.1,11.2,338.1,11.2,338.1,11.2z"/>
<path id="_x2E_svg_79_" fill="#FFFFFF" d="M331,100.5C330.9,100.5,330.9,100.5,331,100.5C330.9,100.5,330.9,100.4,331,100.5
	C330.9,100.4,330.9,100.5,331,100.5z"/>
<path id="_x2E_svg_78_" fill="#FFFFFF" d="M331.2,99.9c0-0.1,0-0.2,0-0.3C331.2,99.7,331.2,99.8,331.2,99.9
	C331.2,100,331.2,99.9,331.2,99.9z"/>
<path id="_x2E_svg_77_" fill="#FFFFFF" d="M96.5,195.3C96.5,195.3,96.5,195.3,96.5,195.3C96.4,195.3,96.4,195.3,96.5,195.3
	C96.4,195.2,96.5,195.2,96.5,195.3C96.5,195.2,96.5,195.2,96.5,195.3z"/>
<path id="_x2E_svg_76_" fill="#FFFFFF" d="M337.8,13c0-0.3,0-0.6,0.1-1c0,0,0,0,0,0C337.8,12.3,337.8,12.6,337.8,13
	C337.8,13,337.8,13,337.8,13z"/>
<path id="_x2E_svg_75_" fill="#FFFFFF" d="M242,122.5c0,0.1,0,0.3,0,0.4c0,0-0.1,0-0.1,0c0-0.1,0-0.3,0-0.4
	C241.9,122.5,242,122.5,242,122.5z"/>
<path id="_x2E_svg_74_" fill="#FFFFFF" d="M385.6,67.5c0.1,0.2,0.3,0.3,0.4,0.5l0,0C385.8,67.9,385.7,67.7,385.6,67.5L385.6,67.5z"
	/>
<path id="_x2E_svg_73_" fill="#FFFFFF" d="M385.6,67.5c-0.1-0.2-0.2-0.5-0.3-0.7c0,0,0,0,0,0C385.4,67.1,385.5,67.3,385.6,67.5
	C385.6,67.5,385.6,67.5,385.6,67.5z"/>
<path id="_x2E_svg_72_" fill="#FFFFFF" d="M385,66.1c0.4,0.1,0.3,0.4,0.2,0.7c0,0,0,0,0,0C385.2,66.6,385.1,66.3,385,66.1L385,66.1z
	"/>
<path id="_x2E_svg_71_" fill="#FFFFFF" d="M385.1,66.1c-0.1-0.2-0.2-0.5-0.3-0.7l0,0C385.2,65.5,385.1,65.8,385.1,66.1
	C385,66.1,385.1,66.1,385.1,66.1z"/>
<path id="_x2E_svg_70_" fill="#FFFFFF" d="M384.8,65.3c0-0.3-0.1-0.6-0.1-0.9c0,0,0,0,0,0C384.7,64.7,384.7,65.1,384.8,65.3
	C384.8,65.4,384.8,65.3,384.8,65.3z"/>
<path id="_x2E_svg_69_" fill="#FFFFFF" d="M328.2,39.1c0,0.1,0.1,0.3,0.1,0.4c0,0-0.1,0-0.1,0C328.2,39.4,328.2,39.3,328.2,39.1
	C328.2,39.1,328.2,39.1,328.2,39.1z"/>
<path id="_x2E_svg_68_" fill="#FFFFFF" d="M384.1,62.8c-0.1-0.2-0.2-0.5-0.3-0.7l0,0C383.9,62.3,384,62.6,384.1,62.8
	C384.1,62.8,384.1,62.8,384.1,62.8z"/>
<path id="_x2E_svg_67_" fill="#FFFFFF" d="M121.7,61.4c0,0.1,0,0.3,0,0.4c0,0-0.1,0-0.1,0C121.7,61.7,121.7,61.5,121.7,61.4
	C121.7,61.4,121.7,61.4,121.7,61.4z"/>
<path id="_x2E_svg_66_" fill="#FFFFFF" d="M383.8,62.1c-0.1-0.2-0.2-0.4-0.3-0.7c0,0,0,0,0,0C383.9,61.5,383.9,61.8,383.8,62.1
	C383.8,62.1,383.8,62.1,383.8,62.1z"/>
<path id="_x2E_svg_65_" fill="#FFFFFF" d="M383.5,61.4c0-0.3,0-0.7-0.1-1c0,0,0,0,0,0C383.5,60.8,383.5,61.1,383.5,61.4
	C383.5,61.4,383.5,61.4,383.5,61.4z"/>
<path id="_x2E_svg_64_" fill="#FFFFFF" d="M383.1,59.6c-0.1-0.2-0.2-0.4-0.3-0.6c0,0,0,0,0,0C382.9,59.2,383,59.4,383.1,59.6
	C383.1,59.6,383.1,59.6,383.1,59.6z"/>
<path id="_x2E_svg_63_" fill="#FFFFFF" d="M382.9,58c0,0.3-0.1,0.6-0.1,0.9c0,0,0,0,0,0c0-0.3-0.1-0.6-0.1-0.9l0,0
	C382.7,58.1,382.8,58.1,382.9,58L382.9,58z"/>
<path id="_x2E_svg_62_" fill="#FFFFFF" d="M382.7,58.1c0-0.3,0-0.5,0-0.8c0,0,0,0,0,0C382.6,57.5,382.6,57.8,382.7,58.1L382.7,58.1z
	"/>
<path id="_x2E_svg_61_" fill="#FFFFFF" d="M12.7,134.5C12.7,134.4,12.7,134.3,12.7,134.5C12.7,134.3,12.7,134.4,12.7,134.5
	C12.7,134.5,12.7,134.5,12.7,134.5z"/>
<path id="_x2E_svg_60_" fill="#FFFFFF" d="M461.7,50.3c-0.1,0-0.1,0-0.2,0c0,0,0,0,0-0.1C461.5,50.3,461.6,50.3,461.7,50.3z"/>
<path id="_x2E_svg_59_" fill="#FFFFFF" d="M455.3,48.9c0.2,0,0.3,0,0.6,0.1c-0.3,0.1-0.5,0.1-0.6,0.1l0,0
	C455.3,49.1,455.3,49,455.3,48.9L455.3,48.9z"/>
<polygon id="_x2E_svg_58_" fill="#FFFFFF" points="124.2,45.3 124.1,45.4 124.1,45.3 "/>
<path id="_x2E_svg_57_" fill="#FFFFFF" d="M61,119.9C61,119.9,61,120,61,119.9c0,0.1-0.1,0.1-0.1,0.1C60.9,120,60.9,119.9,61,119.9
	C60.9,119.9,61,119.9,61,119.9z"/>
<path id="_x2E_svg_56_" fill="#FFFFFF" d="M233.6,87.1c0-0.1,0-0.3-0.1-0.4c0,0,0.1,0,0.1,0C233.6,86.8,233.5,86.9,233.6,87.1
	C233.5,87.1,233.6,87.1,233.6,87.1z"/>
<path id="_x2E_svg_55_" fill="#FFFFFF" d="M332.4,27.3c0.1-0.2,0.3-0.3,0.4-0.5l0,0C332.7,26.9,332.5,27.1,332.4,27.3L332.4,27.3z"
	/>
<path id="_x2E_svg_54_" fill="#FFFFFF" d="M390,80.9c-0.1-0.3-0.1-0.5-0.2-0.8l0,0C389.8,80.4,389.9,80.7,390,80.9
	C390,80.9,390,80.9,390,80.9z"/>
<path id="_x2E_svg_53_" fill="#FFFFFF" d="M332.4,27.3c0,0.3,0,0.7,0,1c0,0,0,0,0,0C332.4,28,332.4,27.6,332.4,27.3
	C332.4,27.3,332.4,27.3,332.4,27.3z"/>
<path id="_x2E_svg_52_" fill="#FFFFFF" d="M389.7,80.2c0-0.1,0-0.3,0-0.4C389.7,79.9,389.7,80.1,389.7,80.2
	C389.7,80.2,389.7,80.2,389.7,80.2z"/>
<path id="_x2E_svg_51_" fill="#FFFFFF" d="M341.8,72.5c0,0.1,0,0.3,0,0.4c0,0-0.1,0-0.1,0C341.8,72.8,341.8,72.6,341.8,72.5
	C341.8,72.5,341.8,72.5,341.8,72.5z"/>
<path id="_x2E_svg_50_" fill="#FFFFFF" d="M137.2,71.6c0-0.3,0.1-0.6,0.1-0.9l0,0C137.3,71,137.3,71.3,137.2,71.6
	C137.2,71.6,137.2,71.6,137.2,71.6z"/>
<path id="_x2E_svg_49_" fill="#FFFFFF" d="M386,68c0,0.1,0,0.1,0,0.2c0,0.1,0,0.1,0.1,0.2c0-0.1,0-0.1-0.1-0.2
	C386,68.2,386,68.1,386,68C386,68,386,68,386,68z"/>
<path id="_x2E_svg_48_" fill="#FFFFFF" d="M342.5,121.9c0,0.1,0,0.2,0,0.4C342.5,122.1,342.5,122,342.5,121.9
	C342.5,121.9,342.5,121.9,342.5,121.9z"/>
<path id="_x2E_svg_47_" fill="#FFFFFF" d="M137.8,69.4c-0.1,0.2-0.2,0.5-0.2,0.7c0,0,0,0,0,0C137.7,69.9,137.8,69.7,137.8,69.4
	C137.9,69.4,137.8,69.4,137.8,69.4z"/>
<path id="_x2E_svg_46_" fill="#FFFFFF" d="M60.4,120.9c-0.1,0-0.3,0.1-0.4,0.1c0,0,0-0.1,0-0.1C60.1,120.9,60.2,120.9,60.4,120.9
	C60.4,120.9,60.4,120.9,60.4,120.9z"/>
<path id="_x2E_svg_45_" fill="#FFFFFF" d="M302.7,114.8C302.7,114.7,302.7,114.7,302.7,114.8c0-0.1,0-0.1,0.1-0.2
	C302.8,114.7,302.8,114.7,302.7,114.8C302.8,114.7,302.8,114.8,302.7,114.8z"/>
<path id="_x2E_svg_44_" fill="#FFFFFF" d="M296.4,111.2c0-0.1-0.1-0.2-0.1-0.3c0.1,0.1,0.1,0.1,0.2,0.2
	C296.5,111.1,296.4,111.2,296.4,111.2z"/>
<path id="_x2E_svg_43_" fill="#FFFFFF" d="M108.6,120.1C108.6,120.1,108.6,120.2,108.6,120.1C108.6,120.1,108.5,120.1,108.6,120.1
	C108.5,120.1,108.6,120,108.6,120.1C108.6,120.1,108.6,120.1,108.6,120.1z"/>
<path id="_x2E_svg_42_" fill="#FFFFFF" d="M248.7,43.4c0,0.1-0.1,0.2-0.1,0.3c0,0-0.1-0.1,0-0.1C248.6,43.6,248.7,43.5,248.7,43.4
	C248.8,43.5,248.7,43.4,248.7,43.4z"/>
<path id="_x2E_svg_41_" fill="#FFFFFF" d="M35.1,44.8c0-0.1,0-0.1,0.1-0.2C35.2,44.6,35.2,44.7,35.1,44.8
	C35.2,44.7,35.1,44.7,35.1,44.8C35.1,44.7,35.1,44.8,35.1,44.8z"/>
<path id="_x2E_svg_40_" fill="#FFFFFF" d="M485.8,47.3c0,0.2,0.1,0.4,0.1,0.7c0,0,0,0,0,0C485.9,47.7,485.8,47.5,485.8,47.3
	C485.8,47.3,485.8,47.3,485.8,47.3z"/>
<path id="_x2E_svg_39_" fill="#FFFFFF" d="M145.4,55.7c0-0.1,0-0.2,0-0.2C145.3,55.6,145.4,55.7,145.4,55.7
	C145.4,55.7,145.4,55.7,145.4,55.7z"/>
<path id="_x2E_svg_38_" fill="#FFFFFF" d="M382.3,56.4C382.3,56.4,382.3,56.4,382.3,56.4C382.3,56.4,382.3,56.4,382.3,56.4z"/>
<path id="_x2E_svg_37_" fill="#FFFFFF" d="M144.3,60c0,0.2,0,0.4,0,0.6l-0.1-0.1c0,0-0.1,0-0.1,0C144.1,60.3,144.2,60.1,144.3,60z"
	/>
<path id="_x2E_svg_36_" fill="#FFFFFF" d="M141,62.7c-0.1,0.2-0.2,0.3-0.2,0.5c0,0,0,0,0,0C140.9,63.1,141,62.9,141,62.7L141,62.7z"
	/>
<path id="_x2E_svg_35_" fill="#FFFFFF" d="M484.5,12.2c-0.1-0.1-0.2-0.2-0.3-0.4c0,0,0,0,0,0C484.3,12,484.4,12.1,484.5,12.2
	L484.5,12.2z"/>
<path id="_x2E_svg_34_" fill="#FFFFFF" d="M484.5,12.2c0.2,0.1,0.3,0.2,0.5,0.2l0,0C484.9,12.4,484.7,12.3,484.5,12.2
	C484.5,12.2,484.5,12.2,484.5,12.2z"/>
<path id="_x2E_svg_33_" fill="#FFFFFF" d="M485,12.4c0.1,0,0.2,0,0.2,0C485.2,12.4,485.1,12.4,485,12.4C485,12.4,485,12.4,485,12.4z
	"/>
<path id="_x2E_svg_32_" fill="#FFFFFF" d="M472.6,13.1c-0.2,0-0.3,0-0.5,0c0,0,0,0,0,0C472.2,13.1,472.4,13.1,472.6,13.1L472.6,13.1
	z"/>
<path id="_x2E_svg_31_" fill="#FFFFFF" d="M337.4,13.5c0,0.1,0,0.2,0,0.1C337.4,13.7,337.4,13.6,337.4,13.5
	C337.4,13.5,337.4,13.5,337.4,13.5z"/>
<polygon id="_x2E_svg_30_" fill="#FFFFFF" points="337.1,14.5 337.1,14.6 337,14.6 "/>
<polygon id="_x2E_svg_29_" fill="#FFFFFF" points="317.5,14.7 317.4,14.7 317.4,14.7 "/>
<path id="_x2E_svg_28_" fill="#FFFFFF" d="M316.4,15.3c0.1,0,0.2-0.1,0.3-0.1c0,0,0,0.1,0,0.1C316.6,15.3,316.5,15.3,316.4,15.3
	C316.4,15.2,316.4,15.3,316.4,15.3z"/>
<path id="_x2E_svg_27_" fill="#FFFFFF" d="M452,17.8C452,17.8,451.9,17.9,452,17.8c-0.1,0-0.1,0-0.1-0.1c0,0,0.1,0,0.1,0
	C452,17.8,452,17.8,452,17.8z"/>
<path id="_x2E_svg_26_" fill="#FFFFFF" d="M332.8,26.8c0-0.1,0-0.1,0-0.2C332.8,26.7,332.8,26.7,332.8,26.8
	C332.8,26.7,332.8,26.8,332.8,26.8C332.9,26.8,332.8,26.8,332.8,26.8z"/>
<polygon id="_x2E_svg_25_" fill="#FFFFFF" points="296.7,29.3 296.7,29.2 296.8,29.3 "/>
<path id="_x2E_svg_24_" fill="#FFFFFF" d="M474.9,39.4c0,0,0.1,0,0.1,0c0,0,0-0.1,0-0.1C475,39.3,475,39.4,474.9,39.4
	C474.9,39.4,474.9,39.4,474.9,39.4z"/>
<path id="_x2E_svg_23_" fill="#FFFFFF" d="M128.1,92c0.1-0.1,0.2-0.2,0.4-0.4c0,0,0,0,0,0C128.4,91.8,128.2,91.9,128.1,92L128.1,92z
	"/>
<path id="_x2E_svg_22_" fill="#FFFFFF" d="M128.1,92c0,0.1,0,0.1,0,0.2C128.2,92.1,128.2,92.1,128.1,92
	C128.2,92.1,128.1,92,128.1,92C128.1,92,128.1,92,128.1,92z"/>
<path id="_x2E_svg_21_" fill="#FFFFFF" d="M247.5,103.8c0,0.2,0,0.3,0,0.5c0,0,0,0,0,0C247.5,104.1,247.5,103.9,247.5,103.8
	L247.5,103.8z"/>
<path id="_x2E_svg_20_" fill="#FFFFFF" d="M139.6,65.7c-0.1,0.2-0.2,0.3-0.3,0.5l0,0C139.4,66,139.5,65.9,139.6,65.7
	C139.6,65.7,139.6,65.7,139.6,65.7z"/>
<path id="_x2E_svg_19_" fill="#FFFFFF" d="M139.3,66.2c-0.1,0.2-0.2,0.3-0.3,0.5l0,0C139.2,66.5,139.3,66.4,139.3,66.2
	C139.4,66.2,139.3,66.2,139.3,66.2z"/>
<path id="_x2E_svg_18_" fill="#FFFFFF" d="M139.1,66.7c-0.1,0.2-0.2,0.3-0.2,0.5c0,0,0,0,0,0C138.9,67,139,66.8,139.1,66.7
	C139.1,66.7,139.1,66.7,139.1,66.7z"/>
<path id="_x2E_svg_17_" fill="#FFFFFF" d="M138.5,67.5c0.1-0.1,0.3-0.2,0.4-0.4c0,0,0,0,0,0C138.7,67.3,138.6,67.4,138.5,67.5
	L138.5,67.5z"/>
<path id="_x2E_svg_16_" fill="#FFFFFF" d="M138.5,67.5c0,0.1,0,0.2,0,0.3c0,0,0,0,0,0C138.5,67.7,138.5,67.6,138.5,67.5
	C138.5,67.5,138.5,67.5,138.5,67.5z"/>
<path id="_x2E_svg_15_" fill="#FFFFFF" d="M138.1,68.9c0-0.1,0.1-0.1,0.1-0.2C138.1,68.7,138.1,68.8,138.1,68.9L138.1,68.9z"/>
<path id="_x2E_svg_14_" fill="#FFFFFF" d="M138,68.8c-0.1,0.2-0.1,0.4-0.2,0.6c0,0,0,0,0,0C137.9,69.3,138,69.1,138,68.8
	C138.1,68.9,138,68.8,138,68.8z"/>
<polygon id="_x2E_svg_13_" fill="#FFFFFF" points="386.2,69.4 386.2,69.3 386.3,69.4 "/>
<path id="_x2E_svg_12_" fill="#FFFFFF" d="M388.1,70.4c0.1,0,0.2,0,0.2,0c0,0,0,0,0,0C388.3,70.4,388.2,70.4,388.1,70.4L388.1,70.4z
	"/>
<path id="_x2E_svg_11_" fill="#FFFFFF" d="M137.4,70.7c0.1-0.2,0.2-0.4,0.2-0.5c0,0,0,0,0,0C137.5,70.3,137.4,70.5,137.4,70.7
	C137.4,70.7,137.4,70.7,137.4,70.7z"/>
<path id="_x2E_svg_10_" fill="#FFFFFF" d="M128.6,82.6c0,0.1,0.1,0.1,0.1,0.2c0,0,0,0,0-0.1C128.6,82.7,128.6,82.7,128.6,82.6
	C128.6,82.6,128.6,82.6,128.6,82.6z"/>
<path id="_x2E_svg_9_" fill="#FFFFFF" d="M84.9,99.9c0.3-0.1,0.5-0.2,0.8-0.4c0,0.1,0,0.1,0.1,0.2C85.4,99.8,85.1,99.8,84.9,99.9
	L84.9,99.9z"/>
<path id="_x2E_svg_8_" fill="#FFFFFF" d="M77.2,100.4c0.3,0,0.7,0,1,0c0,0,0,0.1,0,0.1C77.9,100.4,77.5,100.4,77.2,100.4
	C77.2,100.4,77.2,100.4,77.2,100.4z"/>
<path id="_x2E_svg_7_" fill="#FFFFFF" d="M81.4,100.5c-0.3,0.4-0.7,0.4-1.2,0.3c0,0,0,0,0,0C80.6,100.7,81,100.6,81.4,100.5
	L81.4,100.5z"/>
<path id="_x2E_svg_6_" fill="#FFFFFF" d="M81.4,100.5c0.2,0,0.4-0.1,0.6-0.1c0,0.1,0,0.1,0,0.2C81.9,100.5,81.6,100.5,81.4,100.5
	C81.4,100.5,81.4,100.5,81.4,100.5z"/>
<path id="_x2E_svg_5_" fill="#FFFFFF" d="M83.4,100.1C83.3,100.2,83.3,100.2,83.4,100.1c-0.1,0.1-0.1,0.1-0.1,0.1c0,0-0.1,0-0.1-0.1
	C83.2,100.1,83.3,100.1,83.4,100.1z"/>
<path id="_x2E_svg_4_" fill="#FFFFFF" d="M84.9,99.9C84.8,99.9,84.8,99.9,84.9,99.9C84.8,99.8,84.8,99.9,84.9,99.9
	C84.9,99.9,84.9,99.9,84.9,99.9z"/>
<polygon id="_x2E_svg_3_" fill="#FFFFFF" points="63,103.9 62.9,103.9 63,103.9 "/>
<path id="_x2E_svg_2_" fill="#FFFFFF" d="M201.4,107.6c-0.1,0.3-0.1,0.5-0.2,0.8c-0.6,0.9-1.2,1.8-1.8,2.7c-0.5,0.7-1,1.4-1.5,2.1
	c-0.2,0.3-0.4,0.5-0.7,0.7c-0.1,0.1-0.4,0-0.5-0.1c-0.1-0.1-0.1-0.4-0.1-0.5c0-0.1,0.1-0.2,0.2-0.3c1.3-1.6,2.6-3.3,3.9-4.9
	c0.2-0.2,0.4-0.4,0.6-0.5C201.2,107.5,201.3,107.5,201.4,107.6z"/>
<path id="_x2E_svg_1_" fill="#FFFFFF" d="M152.9,85.2c0-0.1,0-0.1,0-0.2c0,0,0.1,0.1,0.1,0.1C153,85.1,153,85.2,152.9,85.2
	L152.9,85.2z"/>
<path id="_x2E_svg" fill="#FFFFFF" d="M383.9,55.8c0,0.2,0,0.4,0,0.5C383.9,56.2,383.9,56,383.9,55.8z"/>
<g>
</g>
<g>
</g>
<g>
</g>
<g>
</g>
<g>
</g>
<g>
</g>
<g>
</g>
<g>
</g>
<g>
</g>
<g>
</g>
<g>
</g>
<g>
</g>
<g>
</g>
<g>
</g>
<g>
</g>
</svg>
